<?xml version="1.0" encoding="utf-8"?>
<!-- Generator: Adobe Illustrator 22.1.0, SVG Export Plug-In . SVG Version: 6.00 Build 0)  -->
<svg version="1.1" id="レイヤー_1" xmlns="http://www.w3.org/2000/svg" xmlns:xlink="http://www.w3.org/1999/xlink" x="0px"
	 y="0px" viewBox="0 0 600 600" style="enable-background:new 0 0 600 600;" xml:space="preserve">
<style type="text/css">
	.st0{fill:#6495ED;}
</style>
<g>
	<g>
		<g>
			<g>
				<path id="brESFVI33" class="st0" d="M280,350c0,55.2-44.8,100-100,100c-55.2,0-100-44.8-100-100s44.8-100,100-100
					C235.2,250,280,294.8,280,350z"/>
			</g>
		</g>
		<g>
			<g>
				<path id="g3fAFojj0" class="st0" d="M520,350c0,55.2-44.8,100-100,100s-100-44.8-100-100s44.8-100,100-100S520,294.8,520,350z"
					/>
			</g>
		</g>
		<g>
			<g>
				<path id="awKnshogY" class="st0" d="M400,200c0,55.2-44.8,100-100,100s-100-44.8-100-100s44.8-100,100-100S400,144.8,400,200z"
					/>
			</g>
		</g>
	</g>
</g>
</svg>
