<svg id="レイヤー_1" data-name="レイヤー 1" xmlns="http://www.w3.org/2000/svg" viewBox="0 0 600 600"><defs><style>.cls-1{fill:#0071bc;}.cls-2{fill:#2e3192;}.cls-3{fill:#29abe2;}</style></defs><title>アートボード 1</title><path class="cls-1" d="M366.22,410.37048a162.44435,162.44435,0,0,1-132.43994,0q-7.23-3.24-14.06006-7.15a162.62651,162.62651,0,0,1-46.59-40q-4.95-6.21-9.28-12.91a162.08427,162.08427,0,0,1,79.86-239.78q5.715.165,11.3.79,4.155.48,8.25,1.2a130.98163,130.98163,0,0,1,29.99,9.15c2.02.88,4.01,1.83,5.98,2.81q-5.93994.02994-11.74.56a136.97335,136.97335,0,0,0-54.36,16.7,135.38066,135.38066,0,0,0-13.67,8.67,138.02329,138.02329,0,0,0-2.9,222q5.265,4.005,10.93,7.51a137.65379,137.65379,0,0,0,69.82,20.53c.89.02,1.79.03,2.69.03s1.8-.01,2.69-.03a167.64394,167.64394,0,0,0,57.31,10.03C362.08,410.48047,364.16,410.44043,366.22,410.37048Z"/><path class="cls-1" d="M462,262.48047a161.21309,161.21309,0,0,1-25.85,87.83,131.36243,131.36243,0,0,1-52.7,22.1,138.03082,138.03082,0,0,0-2.91-222,168.79135,168.79135,0,0,0-35.55-39.09q-3.31494-2.65493-6.76-5.13c-.8-.59-1.62-1.17-2.43-1.74q2.7.6,5.37,1.31a157.15463,157.15463,0,0,1,15.12,4.77A162.05594,162.05594,0,0,1,462,262.48047Z"/><path class="cls-2" d="M287.05,393.85046a131.04953,131.04953,0,0,1-46.28-13.37,138.48164,138.48164,0,0,0,21-1.71A166.59994,166.59994,0,0,0,287.05,393.85046Z"/><path class="cls-2" d="M402,242.48047a161.77136,161.77136,0,0,1-65.26,129.96,130.982,130.982,0,0,1-29.99-9.15,138.0371,138.0371,0,0,0,16.69-230.74q-5.265-4.00508-10.93-7.51-2.835-1.755-5.76-3.37h-.01c-2.21-1.23-4.45-2.4-6.74-3.5a137.00914,137.00914,0,0,0-29.99-10.42q-4.08-.9-8.24-1.56c-.98-.16-1.96-.3-2.94-.43a136.1891,136.1891,0,0,0-16.14-1.25c-.89-.02-1.79-.03-2.69-.03a138.007,138.007,0,0,0-80.54,250.07,169.00134,169.00134,0,0,0,44.74,45.96,162.03385,162.03385,0,1,1,87.56-311.59q4.17,1.41,8.24,3.04,3.15,1.245,6.22,2.63,7.23,3.24,14.06006,7.15,4.965,2.83492,9.71,6.00995c2.29,1.53,4.54,3.13,6.75,4.77a162.86236,162.86236,0,0,1,30.13,29.22q4.95,6.20992,9.28,12.91A161.21333,161.21333,0,0,1,402,242.48047Z"/><path class="cls-3" d="M522,242.48047a162.05827,162.05827,0,0,1-126.2,158.03q-7.635,1.725-15.52,2.71a163.37175,163.37175,0,0,1-61.45-4.02q-5.37-1.395-10.59-3.16c-1.52-.52-3.03-1.05-4.53-1.61-1.25-.46-2.48-.93-3.71-1.43a160.8276,160.8276,0,0,1-29.99-15.79c-2.29-1.53-4.54-3.13-6.75-4.77a162.07,162.07,0,0,1-39.41-217.79,131.46551,131.46551,0,0,1,52.71-22.1,138.0371,138.0371,0,0,0,16.69,230.74q3.315,1.845,6.75,3.5a137.01,137.01,0,0,0,29.99,10.42q4.08.9,8.24,1.56a138.48164,138.48164,0,0,0,21,1.71H360q6.33,0,12.51-.56a136.97448,136.97448,0,0,0,54.36-16.7,135.393,135.393,0,0,0,13.67-8.67,138.007,138.007,0,0,0-80.54-250.07c-.9,0-1.8.01-2.69.03a166.581,166.581,0,0,0-35.1-8.57q-6.795-3.825-13.97-7.02A162.13105,162.13105,0,0,1,522,242.48047Z"/><path d="M89.4082,454.10742h13.87989v66.71875h36.80859v11.73438H89.4082Z"/><path d="M172.14063,493.55469c0-25.627,15.59667-40.88672,36.33593-40.88672a31.537,31.537,0,0,1,22.48047,9.77539l-7.78613,8.69434a20.049,20.049,0,0,0-14.69434-6.33106c-13.01758,0-21.97656,10.75391-21.97656,28.332,0,17.90528,8.959,28.72266,22.3291,28.72266,6.40723,0,11.48633-2.94336,15.833-7.75781l7.78613,8.45312A31.37229,31.37229,0,0,1,207.42871,534C187.98926,534,172.14063,519.58594,172.14063,493.55469Z"/><path d="M263.87207,454.10742h14.65039l20.751,44.06543,7.11914,16.75977h.32812c-.58007-8.02051-1.89257-17.95606-1.89257-26.72071V454.10742H318.127v78.45313H303.47656l-20.751-44.10938-7.11914-16.71484h-.32813c.58008,8.34765,1.89258,17.80469,1.89258,26.49219v34.332H263.87207Z"/><path d="M357.3584,454.10742h50.30371v11.73535H371.31348v20.0625h30.78906v11.73536H371.31348v23.18554h37.54785v11.73438H357.3584Z"/><path d="M442.75781,454.10742h15.45508l9.32129,30.60449,3.22363,11.751h.47949l3.14747-11.751,9.39746-30.60449H499.2373v78.45313H486.90723V500.91016c0-8.25293,1.376-24.55469,2.03222-32.15625h-.36035l-5.23242,18.22265-8.63672,24.793h-7.9043l-8.57324-24.793-5.08887-18.22265h-.32812c.80859,7.60156,2.03223,23.90332,2.03223,32.15625v31.65039H442.75781Z"/></svg>