<svg id="レイヤー_1" data-name="レイヤー 1" xmlns="http://www.w3.org/2000/svg" xmlns:xlink="http://www.w3.org/1999/xlink" viewBox="0 0 600 600"><defs><style>.cls-1,.cls-4{fill:none;}.cls-2{isolation:isolate;}.cls-3{clip-path:url(#clip-path);}.cls-4{stroke:#000;stroke-miterlimit:10;stroke-width:0.25px;}.cls-5{clip-path:url(#clip-path-2);}.cls-6{clip-path:url(#clip-path-3);}.cls-7{clip-path:url(#clip-path-4);}.cls-8{clip-path:url(#clip-path-5);}.cls-9{clip-path:url(#clip-path-6);}.cls-10{opacity:0.5;}.cls-11{fill:#7a8489;}.cls-12{clip-path:url(#clip-path-7);}.cls-13{fill:#949494;}.cls-14{fill:#999;}.cls-15{fill:#9e9e9e;}.cls-16{fill:#a3a3a3;}.cls-17{fill:#a8a8a8;}.cls-18{fill:#adadad;}.cls-19{fill:#b3b3b3;}.cls-20{fill:#b8b8b8;}.cls-21{fill:#8f8f8f;}.cls-22{fill:#8a8a8a;}.cls-23{fill:#858585;}.cls-24{fill:#dcdcdc;}.cls-25{fill:#cb001c;}.cls-26{fill:#fff;}.cls-27{fill:#2a3560;}.cls-28{clip-path:url(#clip-path-8);}.cls-29{fill:#ad1f23;}.cls-30{clip-path:url(#clip-path-9);}.cls-31{fill:#2a388f;}.cls-32{fill:#f5cb29;}</style><clipPath id="clip-path"><polygon class="cls-1" points="582.832 304.891 300.91 468.726 17.144 304.894 299.065 141.059 582.832 304.891"/></clipPath><clipPath id="clip-path-2"><polygon class="cls-1" points="582.859 295.109 300.938 458.944 17.171 295.112 299.093 131.277 582.859 295.109"/></clipPath><clipPath id="clip-path-3"><polygon class="cls-1" points="582.859 295.109 582.832 304.891 300.91 468.726 300.938 458.944 582.859 295.109"/></clipPath><clipPath id="clip-path-4"><polygon class="cls-1" points="300.938 458.944 300.91 468.726 17.144 304.894 17.171 295.112 300.938 458.944"/></clipPath><clipPath id="clip-path-5"><polygon class="cls-1" points="17.171 295.112 299.093 131.277 299.065 141.059 17.144 304.894 17.171 295.112"/></clipPath><clipPath id="clip-path-6"><polygon class="cls-1" points="299.093 131.277 582.859 295.109 582.832 304.891 299.065 141.059 299.093 131.277"/></clipPath><clipPath id="clip-path-7"><path class="cls-1" d="M360.0076,187.72286l-.01387,4.891c-.02505,8.83759-5.83311,17.66183-17.43583,24.40459-23.35553,13.57275-61.34809,13.57292-84.8564.00039-11.82808-6.82894-17.73466-15.7921-17.70929-24.74186l.01386-4.891c-.02537,8.94976,5.88122,17.91291,17.70929,24.74186,23.50832,13.57253,61.50088,13.57236,84.8564-.00039C354.17448,205.3847,359.98255,196.56045,360.0076,187.72286Z"/></clipPath><clipPath id="clip-path-8"><path class="cls-1" d="M260.00543,317.7252l-.01387,4.891c-.025,8.83759-5.83311,17.66183-17.43584,24.4046-23.34917,13.56906-61.34173,13.56922-84.85-.00331-11.82888-6.82941-17.73547-15.79332-17.7101-24.74322l.01386-4.891c-.02536,8.94989,5.88122,17.9138,17.71011,24.74321,23.5083,13.57253,61.50085,13.57236,84.85.0033C254.17231,335.387,259.98038,326.5628,260.00543,317.7252Z"/></clipPath><clipPath id="clip-path-9"><path class="cls-1" d="M460.00342,317.7252l-.01387,4.891c-.02505,8.83759-5.83312,17.66183-17.43584,24.4046-23.34918,13.56906-61.34173,13.56922-84.85-.0033-11.8265-6.828-17.73311-15.79272-17.70773-24.7437l.01387-4.891c-.02538,8.951,5.88123,17.91567,17.70773,24.7437,23.50829,13.57252,61.50084,13.57235,84.85.00329C454.1703,335.387,459.97836,326.56279,460.00342,317.7252Z"/></clipPath></defs><title>アートボード 1</title><g class="cls-2"><g class="cls-2"><g class="cls-3"><polygon class="cls-4" points="582.832 304.891 300.91 468.726 17.144 304.894 299.065 141.059 582.832 304.891"/></g></g><g class="cls-2"><g class="cls-5"><polygon class="cls-4" points="582.859 295.109 300.938 458.944 17.171 295.112 299.093 131.277 582.859 295.109"/></g></g><g class="cls-2"><g class="cls-6"><polygon class="cls-4" points="582.859 295.109 582.832 304.891 300.91 468.726 300.938 458.944 582.859 295.109"/></g></g><g class="cls-2"><g class="cls-7"><polygon class="cls-4" points="300.938 458.944 300.91 468.726 17.144 304.894 17.171 295.112 300.938 458.944"/></g></g><g class="cls-2"><g class="cls-8"><polygon class="cls-4" points="17.171 295.112 299.093 131.277 299.065 141.059 17.144 304.894 17.171 295.112"/></g></g><g class="cls-2"><g class="cls-9"><polygon class="cls-4" points="299.093 131.277 582.859 295.109 582.832 304.891 299.065 141.059 299.093 131.277"/></g></g></g><g class="cls-10"><path class="cls-11" d="M342.284,195.42432c23.50829,13.57252,23.63218,35.57922.283,49.14828-23.35552,13.57275-61.34808,13.57291-84.85637.0004-23.50195-13.56886-23.62581-35.57555-.27028-49.1483C280.78952,181.85564,318.78205,181.85546,342.284,195.42432Z"/></g><g class="cls-2"><g class="cls-2"><g class="cls-12"><g class="cls-2"><path class="cls-13" d="M360.0076,187.72286l-.01386,4.891q-.00075.26356-.00836.52709l.01387-4.891q.0076-.26352.00835-.5271"/><path class="cls-14" d="M359.99925,188.25l-.01387,4.891a20.51836,20.51836,0,0,1-.39349,3.44281l.01387-4.891a20.5194,20.5194,0,0,0,.39349-3.44281"/><path class="cls-15" d="M359.60576,191.69277l-.01387,4.891a21.80957,21.80957,0,0,1-.96948,3.37815l.01387-4.891a21.80988,21.80988,0,0,0,.96948-3.37815"/><path class="cls-16" d="M358.63628,195.07092l-.01387,4.891a24.29422,24.29422,0,0,1-1.59832,3.41134l.01386-4.891a24.29482,24.29482,0,0,0,1.59833-3.41134"/><path class="cls-17" d="M357.038,198.48226l-.01386,4.891a28.28209,28.28209,0,0,1-2.41469,3.58511l.01386-4.891a28.28068,28.28068,0,0,0,2.41469-3.58511"/><path class="cls-18" d="M354.62326,202.06737l-.01386,4.891a34.57208,34.57208,0,0,1-3.72134,4.00147l.01387-4.891a34.572,34.572,0,0,0,3.72133-4.00147"/><path class="cls-19" d="M350.90193,206.06884l-.01387,4.891a46.49376,46.49376,0,0,1-7.598,5.62579l.01386-4.891a46.49383,46.49383,0,0,0,7.598-5.62578"/><path class="cls-20" d="M343.30389,211.69462l-.01386,4.891q-.36214.2178-.73213.43283a67.819,67.819,0,0,1-13.14828,5.78144l.01387-4.891a67.8198,67.8198,0,0,0,13.14827-5.78144q.37-.215.73213-.43284"/><path class="cls-19" d="M329.42349,217.9089l-.01387,4.891a86.888,86.888,0,0,1-11.35957,2.82811l.01386-4.891a86.88978,86.88978,0,0,0,11.35958-2.82811"/><path class="cls-18" d="M318.06391,220.737l-.01386,4.891c-2.5153.45359-5.07255.8089-7.65382,1.06594l.01386-4.891c2.58127-.257,5.13853-.61234,7.65382-1.06593"/><path class="cls-17" d="M310.41009,221.80294l-.01386,4.891q-3.30671.32927-6.65477.4435l.01387-4.891q3.34248-.11424,6.65476-.44351"/><path class="cls-16" d="M303.75533,222.24645l-.01387,4.891q-3.06927.10489-6.14594.02847l.01386-4.891q3.07234.07643,6.146-.02847"/><path class="cls-15" d="M297.60938,222.27492l-.01386,4.891q-2.96378-.07371-5.91053-.31618l.01386-4.891q2.94288.24246,5.91053.31618"/><path class="cls-14" d="M291.69885,221.95874l-.01386,4.891q-2.937-.242-5.8339-.652l.01387-4.891q2.893.41,5.83389.652"/><path class="cls-13" d="M285.865,221.30673l-.01387,4.891q-3.00889-.42647-5.949-1.03471l.01387-4.891q2.93574.60825,5.949,1.0347"/><path class="cls-21" d="M279.916,220.272l-.01387,4.891q-3.18571-.66-6.25887-1.53415l.01387-4.891q3.06759.87411,6.25887,1.53415"/><path class="cls-22" d="M273.65711,218.73788l-.01387,4.891c-2.50279-.71317-4.9383-1.53322-7.28617-2.46015l.01386-4.891c2.34787.92692,4.78338,1.747,7.28618,2.46015"/><path class="cls-23" d="M266.37093,216.27773l-.01386,4.891a65.19208,65.19208,0,0,1-8.65557-4.14988c-11.82808-6.82894-17.73466-15.7921-17.70929-24.74186l.01387-4.891c-.02538,8.94976,5.88121,17.91291,17.70928,24.74186a65.19392,65.19392,0,0,0,8.65557,4.14988"/></g></g></g><path class="cls-24" d="M342.29508,162.97548c23.50832,13.57253,23.6322,35.57923.27668,49.152s-61.34808,13.57292-84.8564.00039-23.62578-35.57554-.27025-49.14829S318.78677,149.403,342.29508,162.97548Z"/></g><rect class="cls-25" x="270" y="184.82422" width="60" height="2.69531"/><rect class="cls-26" x="270" y="182.12891" width="60" height="2.69531"/><rect class="cls-25" x="270" y="179.43359" width="60" height="2.69531"/><rect class="cls-26" x="270" y="176.73828" width="60" height="2.69531"/><rect class="cls-25" x="270" y="174.04297" width="60" height="2.69531"/><rect class="cls-26" x="270" y="171.34766" width="60" height="2.69531"/><rect class="cls-25" x="270" y="168.65234" width="60" height="2.69531"/><rect class="cls-26" x="270" y="165.95703" width="60" height="2.69531"/><rect class="cls-25" x="270" y="163.26172" width="60" height="2.69531"/><rect class="cls-26" x="270" y="160.56641" width="60" height="2.69531"/><rect class="cls-25" x="270" y="157.87109" width="60" height="2.69531"/><rect class="cls-26" x="270" y="155.17578" width="60" height="2.69531"/><rect class="cls-25" x="270" y="152.48047" width="60" height="2.69531"/><rect class="cls-27" x="270" y="152.48047" width="27.42188" height="18.86719"/><polygon class="cls-26" points="272.473 154.578 272.707 155.293 273.445 155.293 272.848 155.727 273.07 156.441 272.473 155.996 271.863 156.441 272.098 155.727 271.488 155.293 272.238 155.293 272.473 154.578"/><polygon class="cls-26" points="272.473 157.742 272.707 158.457 273.445 158.457 272.848 158.902 273.07 159.605 272.473 159.172 271.863 159.605 272.098 158.902 271.488 158.457 272.238 158.457 272.473 157.742"/><polygon class="cls-26" points="272.473 160.906 272.707 161.621 273.445 161.621 272.848 162.055 273.07 162.77 272.473 162.324 271.863 162.77 272.098 162.055 271.488 161.621 272.238 161.621 272.473 160.906"/><polygon class="cls-26" points="272.473 163.953 272.707 164.668 273.445 164.668 272.848 165.113 273.07 165.816 272.473 165.383 271.863 165.816 272.098 165.113 271.488 164.668 272.238 164.668 272.473 163.953"/><polygon class="cls-26" points="272.473 167.129 272.707 167.832 273.445 167.832 272.848 168.277 273.07 168.992 272.473 168.547 271.863 168.992 272.098 168.277 271.488 167.832 272.238 167.832 272.473 167.129"/><polygon class="cls-26" points="274.664 156.219 274.898 156.934 275.637 156.934 275.039 157.379 275.262 158.082 274.664 157.648 274.055 158.082 274.289 157.379 273.68 156.934 274.43 156.934 274.664 156.219"/><polygon class="cls-26" points="274.664 159.395 274.898 160.098 275.637 160.098 275.039 160.543 275.262 161.258 274.664 160.813 274.055 161.258 274.289 160.543 273.68 160.098 274.43 160.098 274.664 159.395"/><polygon class="cls-26" points="274.664 162.547 274.898 163.262 275.637 163.262 275.039 163.707 275.262 164.41 274.664 163.977 274.055 164.41 274.289 163.707 273.68 163.262 274.43 163.262 274.664 162.547"/><polygon class="cls-26" points="274.664 165.605 274.898 166.309 275.637 166.309 275.039 166.754 275.262 167.469 274.664 167.023 274.055 167.469 274.289 166.754 273.68 166.309 274.43 166.309 274.664 165.605"/><polygon class="cls-26" points="276.879 154.578 277.113 155.293 277.863 155.293 277.254 155.727 277.488 156.441 276.879 155.996 276.27 156.441 276.504 155.727 275.895 155.293 276.645 155.293 276.879 154.578"/><polygon class="cls-26" points="276.879 157.742 277.113 158.457 277.863 158.457 277.254 158.902 277.488 159.605 276.879 159.172 276.27 159.605 276.504 158.902 275.895 158.457 276.645 158.457 276.879 157.742"/><polygon class="cls-26" points="276.879 160.906 277.113 161.621 277.863 161.621 277.254 162.055 277.488 162.77 276.879 162.324 276.27 162.77 276.504 162.055 275.895 161.621 276.645 161.621 276.879 160.906"/><polygon class="cls-26" points="276.879 163.953 277.113 164.668 277.863 164.668 277.254 165.113 277.488 165.816 276.879 165.383 276.27 165.816 276.504 165.113 275.895 164.668 276.645 164.668 276.879 163.953"/><polygon class="cls-26" points="276.879 167.129 277.113 167.832 277.863 167.832 277.254 168.277 277.488 168.992 276.879 168.547 276.27 168.992 276.504 168.277 275.895 167.832 276.645 167.832 276.879 167.129"/><polygon class="cls-26" points="279.07 156.219 279.305 156.934 280.055 156.934 279.445 157.379 279.68 158.082 279.07 157.648 278.461 158.082 278.695 157.379 278.086 156.934 278.836 156.934 279.07 156.219"/><polygon class="cls-26" points="279.07 159.395 279.305 160.098 280.055 160.098 279.445 160.543 279.68 161.258 279.07 160.813 278.461 161.258 278.695 160.543 278.086 160.098 278.836 160.098 279.07 159.395"/><polygon class="cls-26" points="279.07 162.547 279.305 163.262 280.055 163.262 279.445 163.707 279.68 164.41 279.07 163.977 278.461 164.41 278.695 163.707 278.086 163.262 278.836 163.262 279.07 162.547"/><polygon class="cls-26" points="279.07 165.605 279.305 166.309 280.055 166.309 279.445 166.754 279.68 167.469 279.07 167.023 278.461 167.469 278.695 166.754 278.086 166.309 278.836 166.309 279.07 165.605"/><polygon class="cls-26" points="281.285 154.578 281.52 155.293 282.27 155.293 281.66 155.727 281.895 156.441 281.285 155.996 280.687 156.441 280.922 155.727 280.312 155.293 281.063 155.293 281.285 154.578"/><polygon class="cls-26" points="281.285 157.742 281.52 158.457 282.27 158.457 281.66 158.902 281.895 159.605 281.285 159.172 280.687 159.605 280.922 158.902 280.312 158.457 281.063 158.457 281.285 157.742"/><polygon class="cls-26" points="281.285 160.906 281.52 161.621 282.27 161.621 281.66 162.055 281.895 162.77 281.285 162.324 280.687 162.77 280.922 162.055 280.312 161.621 281.063 161.621 281.285 160.906"/><polygon class="cls-26" points="281.285 163.953 281.52 164.668 282.27 164.668 281.66 165.113 281.895 165.816 281.285 165.383 280.687 165.816 280.922 165.113 280.312 164.668 281.063 164.668 281.285 163.953"/><polygon class="cls-26" points="281.285 167.129 281.52 167.832 282.27 167.832 281.66 168.277 281.895 168.992 281.285 168.547 280.687 168.992 280.922 168.277 280.312 167.832 281.063 167.832 281.285 167.129"/><polygon class="cls-26" points="283.477 156.219 283.711 156.934 284.461 156.934 283.852 157.379 284.086 158.082 283.477 157.648 282.879 158.082 283.102 157.379 282.504 156.934 283.254 156.934 283.477 156.219"/><polygon class="cls-26" points="283.477 159.395 283.711 160.098 284.461 160.098 283.852 160.543 284.086 161.258 283.477 160.813 282.879 161.258 283.102 160.543 282.504 160.098 283.254 160.098 283.477 159.395"/><polygon class="cls-26" points="283.477 162.547 283.711 163.262 284.461 163.262 283.852 163.707 284.086 164.41 283.477 163.977 282.879 164.41 283.102 163.707 282.504 163.262 283.254 163.262 283.477 162.547"/><polygon class="cls-26" points="283.477 165.605 283.711 166.309 284.461 166.309 283.852 166.754 284.086 167.469 283.477 167.023 282.879 167.469 283.102 166.754 282.504 166.309 283.254 166.309 283.477 165.605"/><polygon class="cls-26" points="285.703 154.578 285.937 155.293 286.676 155.293 286.078 155.727 286.301 156.441 285.703 155.996 285.094 156.441 285.328 155.727 284.719 155.293 285.469 155.293 285.703 154.578"/><polygon class="cls-26" points="285.703 157.742 285.937 158.457 286.676 158.457 286.078 158.902 286.301 159.605 285.703 159.172 285.094 159.605 285.328 158.902 284.719 158.457 285.469 158.457 285.703 157.742"/><polygon class="cls-26" points="285.703 160.906 285.937 161.621 286.676 161.621 286.078 162.055 286.301 162.77 285.703 162.324 285.094 162.77 285.328 162.055 284.719 161.621 285.469 161.621 285.703 160.906"/><polygon class="cls-26" points="285.703 163.953 285.937 164.668 286.676 164.668 286.078 165.113 286.301 165.816 285.703 165.383 285.094 165.816 285.328 165.113 284.719 164.668 285.469 164.668 285.703 163.953"/><polygon class="cls-26" points="285.703 167.129 285.937 167.832 286.676 167.832 286.078 168.277 286.301 168.992 285.703 168.547 285.094 168.992 285.328 168.277 284.719 167.832 285.469 167.832 285.703 167.129"/><polygon class="cls-26" points="287.895 156.219 288.117 156.934 288.867 156.934 288.27 157.379 288.492 158.082 287.895 157.648 287.285 158.082 287.52 157.379 286.91 156.934 287.66 156.934 287.895 156.219"/><polygon class="cls-26" points="287.895 159.395 288.117 160.098 288.867 160.098 288.27 160.543 288.492 161.258 287.895 160.813 287.285 161.258 287.52 160.543 286.91 160.098 287.66 160.098 287.895 159.395"/><polygon class="cls-26" points="287.895 162.547 288.117 163.262 288.867 163.262 288.27 163.707 288.492 164.41 287.895 163.977 287.285 164.41 287.52 163.707 286.91 163.262 287.66 163.262 287.895 162.547"/><polygon class="cls-26" points="287.895 165.605 288.117 166.309 288.867 166.309 288.27 166.754 288.492 167.469 287.895 167.023 287.285 167.469 287.52 166.754 286.91 166.309 287.66 166.309 287.895 165.605"/><polygon class="cls-26" points="290.109 154.578 290.344 155.293 291.094 155.293 290.484 155.727 290.719 156.441 290.109 155.996 289.5 156.441 289.734 155.727 289.125 155.293 289.875 155.293 290.109 154.578"/><polygon class="cls-26" points="290.109 157.742 290.344 158.457 291.094 158.457 290.484 158.902 290.719 159.605 290.109 159.172 289.5 159.605 289.734 158.902 289.125 158.457 289.875 158.457 290.109 157.742"/><polygon class="cls-26" points="290.109 160.906 290.344 161.621 291.094 161.621 290.484 162.055 290.719 162.77 290.109 162.324 289.5 162.77 289.734 162.055 289.125 161.621 289.875 161.621 290.109 160.906"/><polygon class="cls-26" points="290.109 163.953 290.344 164.668 291.094 164.668 290.484 165.113 290.719 165.816 290.109 165.383 289.5 165.816 289.734 165.113 289.125 164.668 289.875 164.668 290.109 163.953"/><polygon class="cls-26" points="290.109 167.129 290.344 167.832 291.094 167.832 290.484 168.277 290.719 168.992 290.109 168.547 289.5 168.992 289.734 168.277 289.125 167.832 289.875 167.832 290.109 167.129"/><polygon class="cls-26" points="292.301 156.219 292.535 156.934 293.285 156.934 292.676 157.379 292.91 158.082 292.301 157.648 291.691 158.082 291.926 157.379 291.316 156.934 292.066 156.934 292.301 156.219"/><polygon class="cls-26" points="292.301 159.395 292.535 160.098 293.285 160.098 292.676 160.543 292.91 161.258 292.301 160.813 291.691 161.258 291.926 160.543 291.316 160.098 292.066 160.098 292.301 159.395"/><polygon class="cls-26" points="292.301 162.547 292.535 163.262 293.285 163.262 292.676 163.707 292.91 164.41 292.301 163.977 291.691 164.41 291.926 163.707 291.316 163.262 292.066 163.262 292.301 162.547"/><polygon class="cls-26" points="292.301 165.605 292.535 166.309 293.285 166.309 292.676 166.754 292.91 167.469 292.301 167.023 291.691 167.469 291.926 166.754 291.316 166.309 292.066 166.309 292.301 165.605"/><polygon class="cls-26" points="294.516 154.578 294.75 155.293 295.5 155.293 294.891 155.727 295.125 156.441 294.516 155.996 293.918 156.441 294.141 155.727 293.543 155.293 294.293 155.293 294.516 154.578"/><polygon class="cls-26" points="294.516 157.742 294.75 158.457 295.5 158.457 294.891 158.902 295.125 159.605 294.516 159.172 293.918 159.605 294.141 158.902 293.543 158.457 294.293 158.457 294.516 157.742"/><polygon class="cls-26" points="294.516 160.906 294.75 161.621 295.5 161.621 294.891 162.055 295.125 162.77 294.516 162.324 293.918 162.77 294.141 162.055 293.543 161.621 294.293 161.621 294.516 160.906"/><polygon class="cls-26" points="294.516 163.953 294.75 164.668 295.5 164.668 294.891 165.113 295.125 165.816 294.516 165.383 293.918 165.816 294.141 165.113 293.543 164.668 294.293 164.668 294.516 163.953"/><polygon class="cls-26" points="294.516 167.129 294.75 167.832 295.5 167.832 294.891 168.277 295.125 168.992 294.516 168.547 293.918 168.992 294.141 168.277 293.543 167.832 294.293 167.832 294.516 167.129"/><g class="cls-10"><path class="cls-11" d="M242.28918,325.423c23.5083,13.57253,23.63218,35.57923.27666,49.152s-61.3481,13.57292-84.8564.00039-23.62578-35.57555-.27025-49.14829S218.78086,311.85043,242.28918,325.423Z"/></g><g class="cls-2"><g class="cls-2"><g class="cls-28"><g class="cls-2"><path class="cls-13" d="M260.00543,317.7252l-.01386,4.891q-.00075.26357-.00836.52709l.01387-4.891q.00761-.26352.00835-.5271"/><path class="cls-14" d="M259.99708,318.2523l-.01387,4.891a20.51836,20.51836,0,0,1-.39349,3.44281l.01387-4.891a20.5194,20.5194,0,0,0,.39349-3.44281"/><path class="cls-15" d="M259.60359,321.69511l-.01387,4.891a21.80925,21.80925,0,0,1-.96948,3.37815l.01387-4.891a21.80988,21.80988,0,0,0,.96948-3.37815"/><path class="cls-16" d="M258.63411,325.07326l-.01387,4.891a24.29422,24.29422,0,0,1-1.59832,3.41134l.01386-4.891a24.29429,24.29429,0,0,0,1.59833-3.41134"/><path class="cls-17" d="M257.03578,328.4846l-.01386,4.891a28.28209,28.28209,0,0,1-2.41469,3.58511l.01386-4.891a28.28,28.28,0,0,0,2.41469-3.58511"/><path class="cls-18" d="M254.62109,332.06971l-.01386,4.891a34.57208,34.57208,0,0,1-3.72134,4.00147l.01387-4.891a34.572,34.572,0,0,0,3.72133-4.00147"/><path class="cls-19" d="M250.89976,336.07118l-.01387,4.891a46.49318,46.49318,0,0,1-7.598,5.62579l.01386-4.891a46.49444,46.49444,0,0,0,7.598-5.62579"/><path class="cls-20" d="M243.30172,341.697l-.01386,4.891q-.36215.21782-.73214.43284a67.79111,67.79111,0,0,1-13.14284,5.779l.01387-4.891a67.792,67.792,0,0,0,13.14284-5.779q.37-.215.73213-.43283"/><path class="cls-19" d="M229.42675,347.90878l-.01387,4.891a86.86862,86.86862,0,0,1-11.35731,2.8275l.01387-4.891a86.87061,86.87061,0,0,0,11.35731-2.8275"/><path class="cls-18" d="M218.06944,350.73628l-.01387,4.891c-2.51491.45351-5.07182.80877-7.65278,1.06578l.01387-4.891c2.581-.257,5.13787-.61227,7.65278-1.06578"/><path class="cls-17" d="M210.41666,351.80206l-.01387,4.891q-3.30668.32928-6.65479.44351l.01386-4.891q3.34254-.11422,6.6548-.4435"/><path class="cls-16" d="M203.76186,352.24556l-.01386,4.891q-3.06932.10489-6.14607.02847l.01386-4.891q3.07244.07643,6.14607-.02847"/><path class="cls-15" d="M197.61579,352.274l-.01386,4.891q-2.96391-.07374-5.91087-.3162l.01387-4.891q2.94306.24248,5.91086.3162"/><path class="cls-14" d="M191.70493,351.95783l-.01387,4.891q-2.93719-.242-5.8343-.65205l.01386-4.891q2.89325.41007,5.83431.652"/><path class="cls-13" d="M185.87062,351.30578l-.01386,4.891q-3.00912-.42649-5.94945-1.03479l.01386-4.891q2.936.60829,5.94945,1.03478"/><path class="cls-21" d="M179.92117,350.271l-.01386,4.891q-3.186-.66009-6.25935-1.53427l.01387-4.891q3.06783.87417,6.25934,1.53427"/><path class="cls-22" d="M173.66183,348.73673l-.01387,4.891c-2.50291-.71321-4.93853-1.53329-7.28652-2.46026l.01387-4.891c2.348.927,4.78361,1.74706,7.28652,2.46027"/><path class="cls-23" d="M166.37531,346.27646l-.01387,4.891a65.1954,65.1954,0,0,1-8.65575-4.15c-11.82888-6.82941-17.73547-15.79332-17.7101-24.74322l.01387-4.891c-.02537,8.94991,5.88121,17.91382,17.7101,24.74323a65.19293,65.19293,0,0,0,8.65575,4.15"/></g></g></g><path class="cls-24" d="M242.29292,292.97783c23.50831,13.57253,23.63219,35.57923.27667,49.152-23.34918,13.56906-61.34173,13.56923-84.85-.0033s-23.6258-35.57554-.27663-49.1446C180.79846,279.40916,218.78461,279.4053,242.29292,292.97783Z"/></g><rect class="cls-26" x="170" y="282.48047" width="60" height="35.03906"/><path class="cls-29" d="M200,289.47656a10.5,10.5,0,1,1-10.5,10.5,10.49771,10.49771,0,0,1,10.5-10.5"/><g class="cls-10"><path class="cls-11" d="M442.28717,325.423c23.50829,13.57252,23.63218,35.57922.27666,49.152s-61.3481,13.57292-84.85639.0004c-23.502-13.56886-23.62579-35.57556-.27027-49.1483S418.78522,311.85411,442.28717,325.423Z"/></g><g class="cls-2"><g class="cls-2"><g class="cls-30"><g class="cls-2"><path class="cls-13" d="M460.00342,317.7252l-.01387,4.891q-.00075.26357-.00835.52709l.01387-4.891q.0076-.26352.00835-.5271"/><path class="cls-14" d="M459.99507,318.2523l-.01387,4.891a20.51836,20.51836,0,0,1-.39349,3.44281l.01387-4.891a20.51951,20.51951,0,0,0,.39349-3.44281"/><path class="cls-15" d="M459.60158,321.69511l-.01387,4.891a21.80957,21.80957,0,0,1-.96948,3.37815l.01387-4.891a21.81166,21.81166,0,0,0,.96948-3.37814"/><path class="cls-16" d="M458.6321,325.07325l-.01387,4.891a24.29429,24.29429,0,0,1-1.59833,3.41134l.01387-4.891a24.29552,24.29552,0,0,0,1.59833-3.41135"/><path class="cls-17" d="M457.03377,328.4846l-.01387,4.891a28.28,28.28,0,0,1-2.41469,3.58511l.01387-4.891a28.28174,28.28174,0,0,0,2.41469-3.58511"/><path class="cls-18" d="M454.61908,332.06971l-.01387,4.891a34.572,34.572,0,0,1-3.72133,4.00147l.01386-4.891a34.57121,34.57121,0,0,0,3.72134-4.00147"/><path class="cls-19" d="M450.89774,336.07118l-.01386,4.891a46.49328,46.49328,0,0,1-7.598,5.62579l.01387-4.891a46.49434,46.49434,0,0,0,7.598-5.62579"/><path class="cls-20" d="M443.29971,341.697l-.01387,4.891q-.36213.21782-.73213.43284a67.79138,67.79138,0,0,1-13.14284,5.779l.01386-4.891a67.79184,67.79184,0,0,0,13.14285-5.779q.37-.215.73213-.43283"/><path class="cls-19" d="M429.42473,347.90878l-.01386,4.891a86.869,86.869,0,0,1-11.35731,2.8275l.01386-4.891a86.87021,86.87021,0,0,0,11.35731-2.8275"/><path class="cls-18" d="M418.06742,350.73628l-.01386,4.891c-2.51492.45351-5.07183.80878-7.65279,1.06578l.01387-4.891c2.581-.257,5.13787-.61227,7.65278-1.06578"/><path class="cls-17" d="M410.41464,351.80206l-.01387,4.891q-3.30666.32928-6.65479.44351l.01386-4.891q3.34254-.11422,6.6548-.4435"/><path class="cls-16" d="M403.75984,352.24556l-.01386,4.891q-3.06931.10489-6.14607.02847l.01387-4.891q3.07242.07643,6.14606-.02847"/><path class="cls-15" d="M397.61378,352.274l-.01387,4.891q-2.96391-.07373-5.91086-.3162l.01386-4.891q2.94308.24246,5.91087.31619"/><path class="cls-14" d="M391.70291,351.95784l-.01386,4.891q-2.93721-.242-5.83431-.65205l.01387-4.891q2.89323.41007,5.8343.65206"/><path class="cls-13" d="M385.86861,351.30578l-.01387,4.891q-3.00912-.42649-5.94945-1.03479l.01387-4.891q2.936.60829,5.94945,1.03478"/><path class="cls-21" d="M379.91916,350.271l-.01387,4.891q-3.186-.66009-6.25934-1.53427l.01387-4.891q3.06783.87418,6.25934,1.53427"/><path class="cls-22" d="M373.65982,348.73673l-.01387,4.891c-2.50291-.7132-4.93854-1.53329-7.28652-2.46026l.01387-4.891c2.348.927,4.78361,1.74705,7.28652,2.46026"/><path class="cls-23" d="M366.3733,346.27647l-.01387,4.891a65.19339,65.19339,0,0,1-8.65574-4.15c-11.8265-6.828-17.73311-15.79272-17.70773-24.7437l.01387-4.891c-.02538,8.951,5.88123,17.91568,17.70773,24.74371a65.19528,65.19528,0,0,0,8.65574,4.15"/></g></g></g><path class="cls-24" d="M442.29092,292.97784c23.50829,13.57252,23.63218,35.57922.27666,49.152-23.34918,13.56906-61.34173,13.56923-84.85-.00329-23.50195-13.56886-23.62582-35.57555-.27664-49.14461C380.79644,279.40916,418.789,279.409,442.29092,292.97784Z"/></g><g id="_グループ_" data-name="&lt;グループ&gt;"><rect id="_パス_" data-name="&lt;パス&gt;" class="cls-31" x="370" y="282.48047" width="60" height="35.03906"/><polygon id="_パス_2" data-name="&lt;パス&gt;" class="cls-32" points="400 286.418 399.566 287.754 398.148 287.754 399.297 288.586 398.852 289.934 400 289.102 401.148 289.934 400.703 288.586 401.852 287.754 400.434 287.754 400 286.418"/><polygon id="_パス_3" data-name="&lt;パス&gt;" class="cls-32" points="400.434 311.074 400 309.738 399.566 311.074 398.148 311.074 399.297 311.906 398.852 313.254 400 312.422 401.148 313.254 400.703 311.906 401.852 311.074 400.434 311.074"/><polygon id="_パス_4" data-name="&lt;パス&gt;" class="cls-32" points="388.328 300.691 389.477 301.523 389.043 300.188 390.18 299.355 388.773 299.355 388.328 298.008 387.895 299.355 386.488 299.355 387.625 300.188 387.191 301.523 388.328 300.691"/><polygon id="_パス_5" data-name="&lt;パス&gt;" class="cls-32" points="394.164 287.93 393.73 289.277 392.312 289.277 393.461 290.098 393.027 291.445 394.164 290.613 395.312 291.445 394.867 290.098 396.016 289.277 394.609 289.277 394.164 287.93"/><polygon id="_パス_6" data-name="&lt;パス&gt;" class="cls-32" points="389.898 292.148 389.465 293.496 388.047 293.496 389.195 294.328 388.75 295.664 389.898 294.844 391.035 295.664 390.602 294.328 391.75 293.496 390.332 293.496 389.898 292.148"/><polygon id="_パス_7" data-name="&lt;パス&gt;" class="cls-32" points="390.332 305.215 389.898 303.867 389.465 305.215 388.047 305.215 389.195 306.035 388.75 307.383 389.898 306.551 391.035 307.383 390.602 306.035 391.75 305.215 390.332 305.215"/><polygon id="_パス_8" data-name="&lt;パス&gt;" class="cls-32" points="394.609 309.434 394.164 308.086 393.73 309.434 392.312 309.434 393.461 310.266 393.027 311.602 394.164 310.781 395.312 311.602 394.867 310.266 396.016 309.434 394.609 309.434"/><polygon id="_パス_9" data-name="&lt;パス&gt;" class="cls-32" points="413.512 299.355 412.105 299.355 411.672 298.008 411.227 299.355 409.82 299.355 410.957 300.188 410.523 301.523 411.672 300.691 412.809 301.523 412.375 300.188 413.512 299.355"/><polygon id="_パス_10" data-name="&lt;パス&gt;" class="cls-32" points="405.836 287.93 405.391 289.277 403.984 289.277 405.133 290.098 404.687 291.445 405.836 290.613 406.973 291.445 406.539 290.098 407.688 289.277 406.27 289.277 405.836 287.93"/><polygon id="_パス_11" data-name="&lt;パス&gt;" class="cls-32" points="409.398 294.328 408.965 295.664 410.102 294.844 411.25 295.664 410.816 294.328 411.953 293.496 410.535 293.496 410.102 292.148 409.668 293.496 408.25 293.496 409.398 294.328"/><polygon id="_パス_12" data-name="&lt;パス&gt;" class="cls-32" points="410.535 305.215 410.102 303.867 409.668 305.215 408.25 305.215 409.398 306.035 408.965 307.383 410.102 306.551 411.25 307.383 410.816 306.035 411.953 305.215 410.535 305.215"/><polygon id="_パス_13" data-name="&lt;パス&gt;" class="cls-32" points="406.27 309.434 405.836 308.086 405.391 309.434 403.984 309.434 405.133 310.266 404.687 311.602 405.836 310.781 406.973 311.602 406.539 310.266 407.688 309.434 406.27 309.434"/></g></svg>