<?xml version="1.0" encoding="UTF-8" standalone="no"?>
<!DOCTYPE svg PUBLIC "-//W3C//DTD SVG 1.1//EN" "http://www.w3.org/Graphics/SVG/1.1/DTD/svg11.dtd">
<svg version="1.1" xmlns="http://www.w3.org/2000/svg" xmlns:xlink="http://www.w3.org/1999/xlink" preserveAspectRatio="xMidYMid meet" viewBox="0 0 600 600" width="600" height="600"><defs><path d="M363.85 293.13C367.64 296.92 367.64 303.07 363.85 306.86C351.08 319.63 319.63 351.07 306.86 363.84C303.07 367.63 296.93 367.63 293.14 363.84C280.37 351.07 248.92 319.63 236.15 306.86C232.36 303.07 232.36 296.92 236.15 293.13C248.92 280.36 280.37 248.92 293.14 236.15C296.93 232.36 303.07 232.36 306.86 236.15C319.63 248.92 351.08 280.36 363.85 293.13Z" id="b7nR2f6KyN"></path><path d="M163.85 293.13C167.64 296.92 167.64 303.07 163.85 306.86C151.08 319.63 119.63 351.07 106.86 363.84C103.07 367.63 96.93 367.63 93.14 363.84C80.37 351.07 48.92 319.63 36.15 306.86C32.36 303.07 32.36 296.92 36.15 293.13C48.92 280.36 80.37 248.92 93.14 236.15C96.93 232.36 103.07 232.36 106.86 236.15C119.63 248.92 151.08 280.36 163.85 293.13Z" id="bguljbZ7M"></path><path d="M563.85 293.14C567.64 296.93 567.64 303.08 563.85 306.87C551.08 319.64 519.63 351.08 506.86 363.85C503.07 367.64 496.93 367.64 493.14 363.85C480.37 351.08 448.92 319.64 436.15 306.87C432.36 303.08 432.36 296.93 436.15 293.14C448.92 280.37 480.37 248.92 493.14 236.15C496.93 232.36 503.07 232.36 506.86 236.15C519.63 248.92 551.08 280.37 563.85 293.14Z" id="b2m7BlDa32"></path><path d="M121.26 285C126.09 285 130 288.91 130 293.73C130 297.98 130 302.01 130 306.26C130 311.08 126.09 315 121.26 315C111.01 315 88.99 315 78.73 315C73.91 315 70 311.08 70 306.26C70 302.01 70 297.98 70 293.73C70 288.91 73.91 285 78.73 285C88.99 285 111.01 285 121.26 285Z" id="a22eV7kkwk"></path><path d="M521.27 285C526.09 285 530 288.91 530 293.73C530 297.98 530 302.01 530 306.26C530 311.08 526.09 315 521.27 315C511.01 315 488.99 315 478.74 315C473.91 315 470 311.08 470 306.26C470 302.01 470 297.98 470 293.73C470 288.91 473.91 285 478.74 285C488.99 285 511.01 285 521.27 285Z" id="d11FNiBmlr"></path><path d="M321.27 285C326.09 285 330 288.91 330 293.73C330 297.98 330 302.01 330 306.26C330 311.08 326.09 315 321.27 315C311.01 315 288.99 315 278.74 315C273.91 315 270 311.08 270 306.26C270 302.01 270 297.98 270 293.73C270 288.91 273.91 285 278.74 285C288.99 285 311.01 285 321.27 285Z" id="lltmjsWsR"></path><path d="M20 300C20 302.76 17.76 305 15 305C12.24 305 10 302.76 10 300C10 297.24 12.24 295 15 295C17.76 295 20 297.24 20 300Z" id="a1q6gDe0Kg"></path><path d="M190 300C190 302.76 187.76 305 185 305C182.24 305 180 302.76 180 300C180 297.24 182.24 295 185 295C187.76 295 190 297.24 190 300Z" id="a3C5DKggM2"></path><path d="M220 300C220 302.76 217.76 305 215 305C212.24 305 210 302.76 210 300C210 297.24 212.24 295 215 295C217.76 295 220 297.24 220 300Z" id="f4LGPxdp2u"></path><path d="M390 300C390 302.76 387.76 305 385 305C382.24 305 380 302.76 380 300C380 297.24 382.24 295 385 295C387.76 295 390 297.24 390 300Z" id="a36HocPe9k"></path><path d="M420 300C420 302.76 417.76 305 415 305C412.24 305 410 302.76 410 300C410 297.24 412.24 295 415 295C417.76 295 420 297.24 420 300Z" id="bZ0wAAPVP"></path><path d="M590 300C590 302.76 587.76 305 585 305C582.25 305 580 302.76 580 300C580 297.24 582.25 295 585 295C587.76 295 590 297.24 590 300Z" id="brlrymaJ"></path><path d="M121.26 400C126.09 400 130 403.91 130 408.73C130 412.99 130 417.01 130 421.26C130 426.09 126.09 430 121.26 430C111.01 430 88.99 430 78.73 430C73.91 430 70 426.09 70 421.26C70 417.01 70 412.99 70 408.73C70 403.91 73.91 400 78.73 400C88.99 400 111.01 400 121.26 400Z" id="g2eCUf0Tev"></path><path d="M321.27 400C326.09 400 330 403.91 330 408.73C330 412.99 330 417.01 330 421.26C330 426.09 326.09 430 321.27 430C311.01 430 288.99 430 278.74 430C273.91 430 270 426.09 270 421.26C270 417.01 270 412.99 270 408.73C270 403.91 273.91 400 278.74 400C288.99 400 311.01 400 321.27 400Z" id="e8QBp5sMZ"></path><path d="M521.27 400C526.09 400 530 403.91 530 408.73C530 412.99 530 417.01 530 421.26C530 426.09 526.09 430 521.27 430C511.01 430 488.99 430 478.74 430C473.91 430 470 426.09 470 421.26C470 417.01 470 412.99 470 408.73C470 403.91 473.91 400 478.74 400C488.99 400 511.01 400 521.27 400Z" id="cVI4Fcjgt"></path><path d="M95 300L105 300L105 415L95 415L95 300Z" id="b5loHYdbH"></path><path d="M295 300L305 300L305 415L295 415L295 300Z" id="a3XZs9hVTT"></path><path d="M495 300L505 300L505 415L495 415L495 300Z" id="fgThmYmBT"></path></defs><g><g><g><g><filter id="shadow13356234" x="225.31" y="225.3" width="149.38" height="149.38" filterUnits="userSpaceOnUse" primitiveUnits="userSpaceOnUse"><feFlood></feFlood><feComposite in2="SourceAlpha" operator="in"></feComposite><feGaussianBlur stdDeviation="1"></feGaussianBlur><feOffset dx="0" dy="0" result="afterOffset"></feOffset><feFlood flood-color="#000000" flood-opacity="0.5"></feFlood><feComposite in2="afterOffset" operator="in"></feComposite><feMorphology operator="dilate" radius="1"></feMorphology><feComposite in2="SourceAlpha" operator="out"></feComposite></filter><path d="M363.85 293.13C367.64 296.92 367.64 303.07 363.85 306.86C351.08 319.63 319.63 351.07 306.86 363.84C303.07 367.63 296.93 367.63 293.14 363.84C280.37 351.07 248.92 319.63 236.15 306.86C232.36 303.07 232.36 296.92 236.15 293.13C248.92 280.36 280.37 248.92 293.14 236.15C296.93 232.36 303.07 232.36 306.86 236.15C319.63 248.92 351.08 280.36 363.85 293.13Z" id="b1mBfwVoP" fill="white" fill-opacity="1" filter="url(#shadow13356234)"></path></g><use xlink:href="#b7nR2f6KyN" opacity="1" fill="#b0c4de" fill-opacity="1"></use></g><g><g><filter id="shadow7265920" x="25.31" y="225.3" width="149.38" height="149.38" filterUnits="userSpaceOnUse" primitiveUnits="userSpaceOnUse"><feFlood></feFlood><feComposite in2="SourceAlpha" operator="in"></feComposite><feGaussianBlur stdDeviation="1"></feGaussianBlur><feOffset dx="0" dy="0" result="afterOffset"></feOffset><feFlood flood-color="#000000" flood-opacity="0.5"></feFlood><feComposite in2="afterOffset" operator="in"></feComposite><feMorphology operator="dilate" radius="1"></feMorphology><feComposite in2="SourceAlpha" operator="out"></feComposite></filter><path d="M163.85 293.13C167.64 296.92 167.64 303.07 163.85 306.86C151.08 319.63 119.63 351.07 106.86 363.84C103.07 367.63 96.93 367.63 93.14 363.84C80.37 351.07 48.92 319.63 36.15 306.86C32.36 303.07 32.36 296.92 36.15 293.13C48.92 280.36 80.37 248.92 93.14 236.15C96.93 232.36 103.07 232.36 106.86 236.15C119.63 248.92 151.08 280.36 163.85 293.13Z" id="b23DjJKGP7" fill="white" fill-opacity="1" filter="url(#shadow7265920)"></path></g><use xlink:href="#bguljbZ7M" opacity="1" fill="#b0c4de" fill-opacity="1"></use></g><g><g><filter id="shadow13671425" x="425.31" y="225.31" width="149.38" height="149.38" filterUnits="userSpaceOnUse" primitiveUnits="userSpaceOnUse"><feFlood></feFlood><feComposite in2="SourceAlpha" operator="in"></feComposite><feGaussianBlur stdDeviation="1"></feGaussianBlur><feOffset dx="0" dy="0" result="afterOffset"></feOffset><feFlood flood-color="#000000" flood-opacity="0.5"></feFlood><feComposite in2="afterOffset" operator="in"></feComposite><feMorphology operator="dilate" radius="1"></feMorphology><feComposite in2="SourceAlpha" operator="out"></feComposite></filter><path d="M563.85 293.14C567.64 296.93 567.64 303.08 563.85 306.87C551.08 319.64 519.63 351.08 506.86 363.85C503.07 367.64 496.93 367.64 493.14 363.85C480.37 351.08 448.92 319.64 436.15 306.87C432.36 303.08 432.36 296.93 436.15 293.14C448.92 280.37 480.37 248.92 493.14 236.15C496.93 232.36 503.07 232.36 506.86 236.15C519.63 248.92 551.08 280.37 563.85 293.14Z" id="a4LZCYKMES" fill="white" fill-opacity="1" filter="url(#shadow13671425)"></path></g><use xlink:href="#b2m7BlDa32" opacity="1" fill="#b0c4de" fill-opacity="1"></use></g><g><g><filter id="shadow1738059" x="62" y="277" width="76" height="46" filterUnits="userSpaceOnUse" primitiveUnits="userSpaceOnUse"><feFlood></feFlood><feComposite in2="SourceAlpha" operator="in"></feComposite><feGaussianBlur stdDeviation="1"></feGaussianBlur><feOffset dx="0" dy="0" result="afterOffset"></feOffset><feFlood flood-color="#000000" flood-opacity="0.5"></feFlood><feComposite in2="afterOffset" operator="in"></feComposite><feMorphology operator="dilate" radius="1"></feMorphology><feComposite in2="SourceAlpha" operator="out"></feComposite></filter><path d="M121.26 285C126.09 285 130 288.91 130 293.73C130 297.98 130 302.01 130 306.26C130 311.08 126.09 315 121.26 315C111.01 315 88.99 315 78.73 315C73.91 315 70 311.08 70 306.26C70 302.01 70 297.98 70 293.73C70 288.91 73.91 285 78.73 285C88.99 285 111.01 285 121.26 285Z" id="cfUeUzpru" fill="white" fill-opacity="1" filter="url(#shadow1738059)"></path></g><use xlink:href="#a22eV7kkwk" opacity="1" fill="#f5f5f5" fill-opacity="1"></use></g><g><g><filter id="shadow5050094" x="462" y="277" width="76" height="46" filterUnits="userSpaceOnUse" primitiveUnits="userSpaceOnUse"><feFlood></feFlood><feComposite in2="SourceAlpha" operator="in"></feComposite><feGaussianBlur stdDeviation="1"></feGaussianBlur><feOffset dx="0" dy="0" result="afterOffset"></feOffset><feFlood flood-color="#000000" flood-opacity="0.5"></feFlood><feComposite in2="afterOffset" operator="in"></feComposite><feMorphology operator="dilate" radius="1"></feMorphology><feComposite in2="SourceAlpha" operator="out"></feComposite></filter><path d="M521.27 285C526.09 285 530 288.91 530 293.73C530 297.98 530 302.01 530 306.26C530 311.08 526.09 315 521.27 315C511.01 315 488.99 315 478.74 315C473.91 315 470 311.08 470 306.26C470 302.01 470 297.98 470 293.73C470 288.91 473.91 285 478.74 285C488.99 285 511.01 285 521.27 285Z" id="d2iHFHvG2" fill="white" fill-opacity="1" filter="url(#shadow5050094)"></path></g><use xlink:href="#d11FNiBmlr" opacity="1" fill="#f5f5f5" fill-opacity="1"></use></g><g><g><filter id="shadow2927254" x="262" y="277" width="76" height="46" filterUnits="userSpaceOnUse" primitiveUnits="userSpaceOnUse"><feFlood></feFlood><feComposite in2="SourceAlpha" operator="in"></feComposite><feGaussianBlur stdDeviation="1"></feGaussianBlur><feOffset dx="0" dy="0" result="afterOffset"></feOffset><feFlood flood-color="#000000" flood-opacity="0.5"></feFlood><feComposite in2="afterOffset" operator="in"></feComposite><feMorphology operator="dilate" radius="1"></feMorphology><feComposite in2="SourceAlpha" operator="out"></feComposite></filter><path d="M321.27 285C326.09 285 330 288.91 330 293.73C330 297.98 330 302.01 330 306.26C330 311.08 326.09 315 321.27 315C311.01 315 288.99 315 278.74 315C273.91 315 270 311.08 270 306.26C270 302.01 270 297.98 270 293.73C270 288.91 273.91 285 278.74 285C288.99 285 311.01 285 321.27 285Z" id="e25mdsabCR" fill="white" fill-opacity="1" filter="url(#shadow2927254)"></path></g><use xlink:href="#lltmjsWsR" opacity="1" fill="#f5f5f5" fill-opacity="1"></use></g><g><use xlink:href="#a1q6gDe0Kg" opacity="1" fill="#00c4b3" fill-opacity="1"></use></g><g><use xlink:href="#a3C5DKggM2" opacity="1" fill="#00c4b3" fill-opacity="1"></use></g><g><use xlink:href="#f4LGPxdp2u" opacity="1" fill="#00c4b3" fill-opacity="1"></use></g><g><use xlink:href="#a36HocPe9k" opacity="1" fill="#00c4b3" fill-opacity="1"></use></g><g><use xlink:href="#bZ0wAAPVP" opacity="1" fill="#00c4b3" fill-opacity="1"></use></g><g><use xlink:href="#brlrymaJ" opacity="1" fill="#00c4b3" fill-opacity="1"></use></g><g><g><filter id="shadow7569432" x="62" y="392" width="76" height="46" filterUnits="userSpaceOnUse" primitiveUnits="userSpaceOnUse"><feFlood></feFlood><feComposite in2="SourceAlpha" operator="in"></feComposite><feGaussianBlur stdDeviation="1"></feGaussianBlur><feOffset dx="0" dy="0" result="afterOffset"></feOffset><feFlood flood-color="#000000" flood-opacity="0.5"></feFlood><feComposite in2="afterOffset" operator="in"></feComposite><feMorphology operator="dilate" radius="1"></feMorphology><feComposite in2="SourceAlpha" operator="out"></feComposite></filter><path d="M121.26 400C126.09 400 130 403.91 130 408.73C130 412.99 130 417.01 130 421.26C130 426.09 126.09 430 121.26 430C111.01 430 88.99 430 78.73 430C73.91 430 70 426.09 70 421.26C70 417.01 70 412.99 70 408.73C70 403.91 73.91 400 78.73 400C88.99 400 111.01 400 121.26 400Z" id="i2zf72UYtN" fill="white" fill-opacity="1" filter="url(#shadow7569432)"></path></g><use xlink:href="#g2eCUf0Tev" opacity="1" fill="#daa520" fill-opacity="1"></use></g><g><g><filter id="shadow7495039" x="262" y="392" width="76" height="46" filterUnits="userSpaceOnUse" primitiveUnits="userSpaceOnUse"><feFlood></feFlood><feComposite in2="SourceAlpha" operator="in"></feComposite><feGaussianBlur stdDeviation="1"></feGaussianBlur><feOffset dx="0" dy="0" result="afterOffset"></feOffset><feFlood flood-color="#000000" flood-opacity="0.5"></feFlood><feComposite in2="afterOffset" operator="in"></feComposite><feMorphology operator="dilate" radius="1"></feMorphology><feComposite in2="SourceAlpha" operator="out"></feComposite></filter><path d="M321.27 400C326.09 400 330 403.91 330 408.73C330 412.99 330 417.01 330 421.26C330 426.09 326.09 430 321.27 430C311.01 430 288.99 430 278.74 430C273.91 430 270 426.09 270 421.26C270 417.01 270 412.99 270 408.73C270 403.91 273.91 400 278.74 400C288.99 400 311.01 400 321.27 400Z" id="a1zgzwQnFA" fill="white" fill-opacity="1" filter="url(#shadow7495039)"></path></g><use xlink:href="#e8QBp5sMZ" opacity="1" fill="#daa520" fill-opacity="1"></use></g><g><g><filter id="shadow15798803" x="462" y="392" width="76" height="46" filterUnits="userSpaceOnUse" primitiveUnits="userSpaceOnUse"><feFlood></feFlood><feComposite in2="SourceAlpha" operator="in"></feComposite><feGaussianBlur stdDeviation="1"></feGaussianBlur><feOffset dx="0" dy="0" result="afterOffset"></feOffset><feFlood flood-color="#000000" flood-opacity="0.5"></feFlood><feComposite in2="afterOffset" operator="in"></feComposite><feMorphology operator="dilate" radius="1"></feMorphology><feComposite in2="SourceAlpha" operator="out"></feComposite></filter><path d="M521.27 400C526.09 400 530 403.91 530 408.73C530 412.99 530 417.01 530 421.26C530 426.09 526.09 430 521.27 430C511.01 430 488.99 430 478.74 430C473.91 430 470 426.09 470 421.26C470 417.01 470 412.99 470 408.73C470 403.91 473.91 400 478.74 400C488.99 400 511.01 400 521.27 400Z" id="g12FilF9hD" fill="white" fill-opacity="1" filter="url(#shadow15798803)"></path></g><use xlink:href="#cVI4Fcjgt" opacity="1" fill="#daa520" fill-opacity="1"></use></g><g><use xlink:href="#b5loHYdbH" opacity="1" fill="#f0ffff" fill-opacity="0.5"></use></g><g><use xlink:href="#a3XZs9hVTT" opacity="1" fill="#f0ffff" fill-opacity="0.5"></use></g><g><use xlink:href="#fgThmYmBT" opacity="1" fill="#f0ffff" fill-opacity="0.5"></use></g></g></g></svg>