<?xml version="1.0" encoding="utf-8"?>
<!-- Generator: Adobe Illustrator 22.1.0, SVG Export Plug-In . SVG Version: 6.00 Build 0)  -->
<svg version="1.1" id="White" xmlns="http://www.w3.org/2000/svg" xmlns:xlink="http://www.w3.org/1999/xlink" x="0px" y="0px"
	 viewBox="0 0 32 32" style="enable-background:new 0 0 32 32;" xml:space="preserve">
<style type="text/css">
	.st0{fill:#00ACED;}
</style>
<path class="st0" d="M25.5,11.1c0,0.2,0,0.4,0,0.6c0,6.5-5,14-14,14c-2.8,0-5.4-0.8-7.5-2.2c0.4,0.1,0.8,0.1,1.2,0.1
	c2.3,0,4.4-0.8,6.1-2.1c-2.2,0-4-1.5-4.6-3.4c0.3,0.1,0.6,0.1,0.9,0.1c0.4,0,0.9-0.1,1.3-0.2c-2.3-0.5-4-2.4-4-4.8v-0.1
	c0.7,0.4,1.4,0.6,2.2,0.6C5.9,12.8,5,11.3,5,9.6c0-0.9,0.2-1.7,0.7-2.5c2.4,3,6.1,4.9,10.2,5.1c-0.1-0.4-0.1-0.7-0.1-1.1
	c0-2.7,2.2-4.9,4.9-4.9c1.4,0,2.7,0.6,3.6,1.6c1.1-0.2,2.2-0.6,3.1-1.2c-0.4,1.2-1.1,2.1-2.2,2.7c1-0.1,2-0.4,2.8-0.8
	C27.3,9.5,26.5,10.4,25.5,11.1z"/>
</svg>
