<?xml version="1.0" encoding="UTF-8"?>
<svg width="16px" height="16px" viewBox="0 0 16 16" version="1.1" xmlns="http://www.w3.org/2000/svg" xmlns:xlink="http://www.w3.org/1999/xlink">
    <!-- Generator: Sketch 51.3 (57544) - http://www.bohemiancoding.com/sketch -->
    <title>favicon_01@0.5x</title>
    <desc>Created with Sketch.</desc>
    <defs></defs>
    <g id="favicon_01" stroke="none" stroke-width="1" fill="none" fill-rule="evenodd">
        <rect id="Rectangle-3" fill="#324149" fill-rule="nonzero" x="0" y="0" width="16" height="16" rx="2"></rect>
        <g id="logo-copy" transform="translate(2.000000, 3.000000)" fill-rule="nonzero">
            <path d="M3.97035573,0.567193676 C4.96038405,0.533547789 5.93306059,0.833140151 6.73258893,1.41798419 L7.52666008,1.41798419 C6.88573123,0.567193676 5.53581028,0 3.97035573,0 C1.78098814,0 0,1.13438735 0,2.55237154 L0,7.65711462 C0,9.07509881 1.70158103,10.1697826 3.97035573,10.2094862 C4.20727502,10.2107246 4.44404813,10.1974653 4.67934783,10.1697826 L4.83249012,9.56288538 C4.54803374,9.61485621 4.25951945,9.64142989 3.97035573,9.64229249 C2.2687747,9.64229249 0.567193676,8.68940711 0.567193676,7.65711462 C0.563412245,7.54473279 0.582716302,7.43276926 0.623913043,7.32814229 C1.51831605,8.18355146 2.55237154,8.50790514 3.97035573,8.50790514 C4.34980648,8.51208846 4.72902675,8.48743914 5.10474308,8.43416996 L5.25788538,7.82160079 C4.8341939,7.90716972 4.40255439,7.94710113 3.97035573,7.94071146 C2.2687747,7.94071146 1.70158103,7.59472332 0.913181818,6.80632411 C0.778166957,6.65894183 0.6791527,6.48226933 0.623913043,6.29017787 C0.582721976,6.18357159 0.563431712,6.06975903 0.567193676,5.9555336 C0.563412245,5.84315177 0.582716302,5.73118824 0.623913043,5.62656126 C1.51831605,6.48197043 2.55237154,6.80632411 3.97035573,6.80632411 C4.50485636,6.81825909 5.03865829,6.76106602 5.55849802,6.63616601 L5.72298419,5.98389328 C5.15927468,6.17533408 4.56525251,6.26184216 3.97035573,6.23913043 C2.55237154,6.17533408 1.70158103,5.89314229 0.913181818,5.10474308 C0.778166957,4.9573608 0.6791527,4.7806883 0.623913043,4.58859684 C0.582721976,4.48199056 0.563431712,4.368178 0.567193676,4.25395257 C0.566231803,4.14178207 0.585443836,4.03035228 0.623913043,3.92498024 C1.51831605,4.7803894 2.55237154,5.10478276 3.97035573,5.10474308 C4.67048431,5.13531536 5.36940931,5.02140217 6.02359684,4.77009881 L6.15405138,4.25395257 L5.58685771,4.25395257 C5.06827902,4.44050481 4.52146827,4.53754941 3.97035573,4.53754941 C2.2687747,4.53754941 0.567193676,3.58466403 0.567193676,2.55237154 C0.567193676,1.52007905 2.05324111,0.567193676 3.97035573,0.567193676 Z" id="Shape" fill="#FFFFFF"></path>
            <path d="M4.33335968,3.68675889 L6.88573123,3.68675889 L5.5698419,8.9333004 L7.79324111,7.26575099 L7.3451581,9.53452569 L10.1073913,5.56416996 L8.07116601,6.07464427 L8.86523715,3.68675889 L11.7012055,3.68675889 L12.1266008,1.98517787 L4.753083,1.98517787 L4.33335968,3.68675889 Z M3.60167984,4.25395257 L4.31067194,1.41798419 L12.8185771,1.41798419 L12.109585,4.25395257 L9.2736166,4.25395257 L8.9333004,5.26922925 L11.4346245,4.64531621 L6.23913043,12.0471937 L6.92543478,8.61 L4.63397233,10.3456126 L6.15405138,4.25395257 L3.60167984,4.25395257 Z" id="Path-2-Copy" fill="#FFC200"></path>
        </g>
    </g>
</svg>