<svg id="レイヤー_1" data-name="レイヤー 1" xmlns="http://www.w3.org/2000/svg" viewBox="0 0 720.03 512"><defs><style>.cls-1{fill:#fff;}.cls-2{fill:#3d90b2;}</style></defs><title>main</title><path class="cls-1" d="M427.1.59H57.6A57.16,57.16,0,0,0,.46,57.73v369.5A57.16,57.16,0,0,0,57.6,484.37H72.85l2.6,24.14A4.57,4.57,0,0,0,80,512.59h27.72a4.55,4.55,0,0,0,4.53-4.08l2.61-24.14h255l2.63,24.14a4.55,4.55,0,0,0,4.53,4.08H404.7a4.57,4.57,0,0,0,4.56-4.08l2.59-24.14H427.1a57.15,57.15,0,0,0,57.15-57.14V57.73A57.15,57.15,0,0,0,427.1.59ZM454,174.24H443.92V310.71H454v53.38H443.92v37.64a39,39,0,0,1-39,39H79.76a39,39,0,0,1-39-39V76.55a39,39,0,0,1,39-39H405a39,39,0,0,1,39,39v44.32H454v53.37Z" transform="translate(-0.46 -0.59)"/><path class="cls-1" d="M309,253.27a4.54,4.54,0,0,0-3.6-1.76H259.29A21.61,21.61,0,0,1,245.38,260l-22.12,38.38-1.13,1.93a4.55,4.55,0,0,0,2.74,6.69s-.27.09,2.55.7a67.88,67.88,0,0,0,14.5,1.55A70.5,70.5,0,0,0,309,260.4c.91-2.89.78-3.2.78-3.2A4.49,4.49,0,0,0,309,253.27Z" transform="translate(-0.46 -0.59)"/><path class="cls-1" d="M405,53.68H79.76A22.87,22.87,0,0,0,56.9,76.55V401.73a22.86,22.86,0,0,0,22.86,22.86H405a22.85,22.85,0,0,0,22.84-22.86V364.09H410.34V310.71h17.45V174.24H410.34V120.87h17.45V76.55A22.86,22.86,0,0,0,405,53.68Zm-163,279.72a94.75,94.75,0,1,1,94.73-94.75A94.75,94.75,0,0,1,241.92,333.4Z" transform="translate(-0.46 -0.59)"/><path class="cls-1" d="M220.24,238.65A21.54,21.54,0,0,1,223,228.37l-22.78-39.5a4.64,4.64,0,0,0-3.25-2.22,4.48,4.48,0,0,0-3.75,1.12s.56-.68-1.14,1a70.52,70.52,0,0,0,0,99.78c1.85,1.85,1.73,1.54,1.73,1.54a4.68,4.68,0,0,0,3.75,1.07,4.59,4.59,0,0,0,3.23-2.23l1.18-2,21.46-37.17A21.66,21.66,0,0,1,220.24,238.65Z" transform="translate(-0.46 -0.59)"/><path class="cls-1" d="M241.92,168.12a70.11,70.11,0,0,0-15,1.65c-2.88.63-2.78.82-2.78.82a4.5,4.5,0,0,0-3,2.67,4.55,4.55,0,0,0,.29,4l23.07,40a21.59,21.59,0,0,1,15.85,10.08h45.45a4.53,4.53,0,0,0,3.56-1.72,4.47,4.47,0,0,0,.91-3.84s.2.12-.56-2.49a70.32,70.32,0,0,0-67.75-51.15Z" transform="translate(-0.46 -0.59)"/><circle class="cls-1" cx="635.28" cy="413.1" r="84.75"/><path class="cls-2" d="M635.75,343.3a38,38,0,0,0-11.22,74.37v59.64a3.32,3.32,0,0,0,1.38,2.69l4.77,3.44a3.32,3.32,0,0,0,4.59-.69l11.64-15.4a3.33,3.33,0,0,0,0-4l-4.52-6h0l4.51-6a3.32,3.32,0,0,0,0-4l-3-3.93a3.35,3.35,0,0,1,0-4l7.69-9.92a3.32,3.32,0,0,0,.69-2V415.56a38,38,0,0,0-16.57-72.26Zm0,128.71h-4V419.15a37.71,37.71,0,0,0,4,.21ZM636,370.14a7.95,7.95,0,1,1,8-7.95A8,8,0,0,1,636,370.14Z" transform="translate(-0.46 -0.59)"/><path class="cls-1" d="M706.13,164.93a38,38,0,0,0-74.37-11.22H572.13a3.29,3.29,0,0,0-2.69,1.38L566,159.86a3.31,3.31,0,0,0,.69,4.58l15.4,11.65a3.33,3.33,0,0,0,4,0l6-4.53h0l6,4.52a3.32,3.32,0,0,0,4,0l3.93-3a3.33,3.33,0,0,1,4,0l9.93,7.69a3.3,3.3,0,0,0,2,.69h11.92a38,38,0,0,0,72.26-16.57Zm-128.71,0v-4h52.86c-.13,1.31-.21,2.65-.21,4Zm101.87.24a8,8,0,1,1,8,8A8,8,0,0,1,679.29,165.17Z" transform="translate(-0.46 -0.59)"/><path class="cls-1" d="M706.13,52.76a38,38,0,0,0-74.37-11.21H572.13a3.29,3.29,0,0,0-2.69,1.38L566,47.7a3.31,3.31,0,0,0,.69,4.58l15.4,11.64a3.3,3.3,0,0,0,4,0l6-4.52h0l6,4.52a3.32,3.32,0,0,0,4,0l3.93-3a3.32,3.32,0,0,1,4,0l9.93,7.68a3.25,3.25,0,0,0,2,.7h11.92a38,38,0,0,0,72.26-16.58Zm-128.71,0v-4h52.86c-.13,1.31-.21,2.64-.21,4ZM679.29,53a8,8,0,1,1,8,8A8,8,0,0,1,679.29,53Z" transform="translate(-0.46 -0.59)"/><rect class="cls-1" x="608.86" y="258.44" width="53.77" height="15" transform="translate(369.34 901.11) rotate(-90)"/><rect class="cls-1" x="608.4" y="257.86" width="53.77" height="15"/></svg>