<svg id="レイヤー_1" data-name="レイヤー 1" xmlns="http://www.w3.org/2000/svg" viewBox="0 0 336.3 382.52"><defs><style>.cls-1{fill:#3d90b2;}</style></defs><title>002</title><path class="cls-1" d="M316.72,216H257a36.91,36.91,0,0,0,0,73.82h59.69c20.38,0,18.2-16.53,18.2-36.91S337.1,216,316.72,216ZM257,268.69a15.82,15.82,0,1,1,15.81-15.82A15.83,15.83,0,0,1,257,268.69Z" transform="translate(1.31 -0.89)"/><path class="cls-1" d="M204.31,252.87A52.79,52.79,0,0,1,257,200.14h65.9V164.5a42.17,42.17,0,0,0-42.18-42.17H77.65c-21,0-20.45-21.19-.75-21.19H233.67a7.45,7.45,0,0,0,7.44-7.45v-63A29.79,29.79,0,0,0,197,4.59l-163.4,90c-33.73,21-34.86,43.35-34.86,69.93V341.22a42.18,42.18,0,0,0,42.18,42.19H280.75a42.18,42.18,0,0,0,42.18-42.19V305.59H257A52.78,52.78,0,0,1,204.31,252.87Zm97.58-99.16a23.92,23.92,0,0,1,2.59,10.79v5.86H299.2V164.5a18.34,18.34,0,0,0-2-8.38ZM267,140.77h13.72a22.82,22.82,0,0,1,2.35.13l-.52,5.24a18.27,18.27,0,0,0-1.83-.08H267Zm-36.91,0h15.82v5.29H230.12ZM28.3,363.87c-7.47-.06-13.87-3.54-17.16-7.55L15.25,353c2,2.54,7.37,5.64,13.05,5.58Zm0-218.07c-7.47-.06-13.87-3.54-17.16-7.55L15.25,135c2,2.55,7.37,5.65,13.05,5.59ZM56.86,365H41v-5.28H56.86Zm4.55-218.9H45.58v-5.29H61.41v5.29Zm131.8-5.29H209v5.29H193.21ZM93.76,365H78v-5.28h15.8Zm4.55-218.9H82.5v-5.29H98.31ZM130.67,365H114.85v-5.28h15.82Zm4.54-218.9H119.4v-5.29h15.81ZM167.58,365H151.77v-5.28h15.81Zm4.54-218.9H156.31v-5.29h15.81ZM204.48,365H188.67v-5.28h15.81Zm36.92,0H225.57v-5.28H241.4Zm57.8-23.74v-1.3h5.28v1.3a23.58,23.58,0,0,1-5.4,15L295,352.93A18.33,18.33,0,0,0,299.2,341.22Zm-36.72,18.46h15.81V365H262.48Z" transform="translate(1.31 -0.89)"/></svg>