<svg id="レイヤー_1" data-name="レイヤー 1" xmlns="http://www.w3.org/2000/svg" viewBox="0 0 358.23 460.59"><defs><style>.cls-1{fill:#3d90b2;}</style></defs><title>001</title><path class="cls-1" d="M358.54,389.15l-3.27-18.93c-2.81-16.29-14.15-30.46-30.32-37.88L256.09,300.7c-8.46-3.88-10.88-16.13-11.12-16.8a4.42,4.42,0,0,0-3.95-1.76h-.17A4.06,4.06,0,0,0,237.4,285l-7.94,27.89L179.81,403l-49.53-89.8L122.2,285c-.43-1.52-1.78-2.65-4-2.9a4.22,4.22,0,0,0-3.73,2.35c0,.13-2.41,12.37-10.89,16.26L34.66,332.34c-16.17,7.43-27.5,21.59-30.32,37.88L1.07,389.15c-1.28,7.42.55,17.78,7.6,23,.83.62,1.87,1.54,3.18,2.72,12.68,11.24,51.25,45.46,168,45.46s155.26-34.22,167.94-45.46c1.32-1.17,2.37-2.1,3.2-2.72C358,406.92,359.83,396.56,358.54,389.15Z" transform="translate(-0.69 0.24)"/><path class="cls-1" d="M212.62,112.51c16.69,31.32,39.54,74.22,49.52,80.45l1.89,1.18L271,140c1.9-23.79-5.75-46.32-21.54-63.42-17.26-18.7-42.64-29.42-69.62-29.42s-52.37,10.72-69.63,29.42C94.39,93.65,86.74,116.18,88.65,140L95,193.66l2.11-2.31c4.35-4.74,12.2-9.69,22.13-16,23-14.5,57.51-36.29,84.63-79.28C206.34,100.72,209.33,106.33,212.62,112.51Z" transform="translate(-0.69 0.24)"/><path class="cls-1" d="M41.37,218.08a10.69,10.69,0,0,0,10.42,8.22,10.55,10.55,0,0,0,2.5-.3l18.06-4.34A10.64,10.64,0,0,0,79.84,215l.74.05-.34-1.36a10.62,10.62,0,0,0,0-5l-9.42-39c-2.26-13.59-3.4-25.2-3.4-34.54a112.35,112.35,0,0,1,224.7,0c0,9.33-1.15,20.95-3.57,35l-9.25,38.53a10.09,10.09,0,0,0-.26,1.76l-.36.83c-.13.27-12.58,27.19-51.25,34.78a11.55,11.55,0,0,0-10.17-6H194a11.58,11.58,0,0,0-11.56,11.56v9.12A11.58,11.58,0,0,0,194,272.31h23.3a11.56,11.56,0,0,0,10.83-7.62c23.15-4,38.63-13.71,47.57-21.24a81.49,81.49,0,0,0,17.53-20.35l12.09,2.9a10.71,10.71,0,0,0,12.93-7.92l9.25-38.53a10.75,10.75,0,0,0-7.93-12.93L312.9,165a219.06,219.06,0,0,0,2.39-29.78c0-74.7-60.78-135.48-135.48-135.48S44.33,60.54,44.33,135.24A218.81,218.81,0,0,0,46.72,165L40,166.62a10.73,10.73,0,0,0-7.92,12.93Z" transform="translate(-0.69 0.24)"/></svg>