<?xml version="1.0" encoding="utf-8"?>
<!-- Generator: Adobe Illustrator 22.1.0, SVG Export Plug-In . SVG Version: 6.00 Build 0)  -->
<svg version="1.1" id="レイヤー_1" xmlns="http://www.w3.org/2000/svg" xmlns:xlink="http://www.w3.org/1999/xlink" x="0px"
	 y="0px" viewBox="0 0 443.9 346.6" style="enable-background:new 0 0 443.9 346.6;" xml:space="preserve">
<style type="text/css">
	.st0{fill:#0071BC;}
	.st1{fill:#2E3192;}
	.st2{fill:#29ABE2;}
	.st3{fill:none;}
</style>
<title>logo</title>
<path class="st0" d="M288.1,330.9c-42.1,18.8-90.3,18.8-132.4,0c-4.8-2.2-9.5-4.5-14.1-7.1c-17.9-10.3-33.7-23.8-46.6-40
	c-3.3-4.1-6.4-8.4-9.3-12.9C37.3,195.6,59,95.3,134.2,46.8c9.9-6.4,20.4-11.6,31.4-15.7c3.8,0.1,7.6,0.4,11.3,0.8
	c2.8,0.3,5.5,0.7,8.2,1.2c10.3,1.8,20.4,4.9,30,9.1c2,0.9,4,1.8,6,2.8c-4,0-7.9,0.2-11.7,0.6c-19.1,1.7-37.6,7.4-54.4,16.7
	c-4.7,2.6-9.3,5.5-13.7,8.7c-61.9,44.5-76,130.7-31.5,192.6c8,11.2,17.7,21.1,28.6,29.4c3.5,2.7,7.2,5.2,10.9,7.5
	c21,13,45.1,20.1,69.8,20.5c0.9,0,1.8,0,2.7,0s1.8,0,2.7,0c18.4,6.7,37.8,10.1,57.3,10C284,331,286.1,331,288.1,330.9z"/>
<path class="st0" d="M383.9,183c0.1,31.2-8.9,61.7-25.9,87.8c-15.7,11.1-33.7,18.7-52.7,22.1c60.7-46.1,72.5-132.7,26.4-193.4
	C323.5,88.6,313.6,79,302.5,71c-9.7-14.8-21.7-28-35.5-39.1c-2.2-1.8-4.5-3.5-6.8-5.1c-0.8-0.6-1.6-1.2-2.4-1.7
	c1.8,0.4,3.6,0.8,5.4,1.3c5.1,1.3,10.2,2.9,15.1,4.8C341.8,54.7,383.9,115.3,383.9,183z"/>
<path class="st1" d="M209,314.4c-16.1-1.6-31.8-6.1-46.3-13.4c7,0,14.1-0.6,21-1.7C191.7,305.1,200.1,310.1,209,314.4z"/>
<path class="st1" d="M323.9,163c0,51.2-24.2,99.4-65.3,130c-10.3-1.8-20.4-4.9-30-9.1c66.7-36.9,90.9-120.9,54-187.6
	c-9.3-16.8-22-31.5-37.3-43.1c-3.5-2.7-7.2-5.2-10.9-7.5c-1.9-1.2-3.8-2.3-5.8-3.4h0c-2.2-1.2-4.5-2.4-6.7-3.5
	c-9.6-4.6-19.6-8.1-30-10.4c-2.7-0.6-5.5-1.1-8.2-1.6c-1-0.2-2-0.3-2.9-0.4c-5.4-0.7-10.7-1.2-16.1-1.2c-0.9,0-1.8,0-2.7,0
	c-76.2,0-138,61.8-138,138c0,44.4,21.4,86.1,57.5,112.1c11.8,18,27,33.6,44.7,46C38.9,301.2-15.8,214.4,4.1,127.1
	S110.8-14.8,198,5.1c5.3,1.2,10.5,2.7,15.7,4.4c2.8,0.9,5.5,2,8.2,3c2.1,0.8,4.2,1.7,6.2,2.6c4.8,2.2,9.5,4.5,14.1,7.1
	c3.3,1.9,6.5,3.9,9.7,6c2.3,1.5,4.5,3.1,6.8,4.8c11.3,8.4,21.4,18.2,30.1,29.2c3.3,4.1,6.4,8.4,9.3,12.9
	C315,101.4,324,131.9,323.9,163z"/>
<path class="st2" d="M443.9,163c0,75.7-52.4,141.3-126.2,158c-5.1,1.2-10.3,2.1-15.5,2.7c-20.6,2.6-41.4,1.2-61.5-4
	c-3.6-0.9-7.1-2-10.6-3.2c-1.5-0.5-3-1-4.5-1.6c-1.2-0.5-2.5-0.9-3.7-1.4c-10.5-4.2-20.6-9.5-30-15.8c-2.3-1.5-4.5-3.1-6.8-4.8
	c-68.4-50.9-85.6-146.1-39.4-217.8c15.7-11.1,33.7-18.7,52.7-22.1c-60.7,46.1-72.6,132.7-26.5,193.4c11.6,15.3,26.3,28,43.1,37.3
	c2.2,1.2,4.5,2.4,6.8,3.5c9.6,4.6,19.6,8.1,30,10.4c2.7,0.6,5.5,1.1,8.2,1.6c6.9,1.1,14,1.7,21,1.7h0.8c4.2,0,8.4-0.2,12.5-0.6
	c19.1-1.7,37.6-7.4,54.4-16.7c4.7-2.6,9.3-5.5,13.7-8.7c61.9-44.5,76-130.7,31.5-192.6C368.1,46.4,326.3,25,281.9,25
	c-0.9,0-1.8,0-2.7,0c-11.4-4.1-23.1-7-35.1-8.6c-4.5-2.6-9.2-4.9-14-7C315-19,407,26.7,435.5,111.5
	C441.1,128.1,443.9,145.5,443.9,163z"/>
<rect x="-78.1" y="-117" class="st3" width="600" height="600"/>
</svg>
