<svg id="レイヤー_1" data-name="レイヤー 1" xmlns="http://www.w3.org/2000/svg" xmlns:xlink="http://www.w3.org/1999/xlink" viewBox="0 0 600 600"><defs><style>.cls-1,.cls-10,.cls-12{fill:none;}.cls-2{clip-path:url(#clip-path);}.cls-3{fill:silver;}.cls-4{fill:#fff;}.cls-5{fill:#ad1f23;}.cls-6{fill:#cb001c;}.cls-7{fill:#2a3560;}.cls-8{fill:#2a388f;}.cls-9{fill:#f5cb29;}.cls-10{stroke:#0071bc;}.cls-10,.cls-12{stroke-miterlimit:10;stroke-width:24px;}.cls-11{fill:#0071bc;}.cls-12{stroke:#29abe2;}.cls-13{fill:#ff7bac;}</style><clipPath id="clip-path"><rect class="cls-1" width="600" height="600"/></clipPath></defs><title>アートボード 1</title><g class="cls-2"><circle class="cls-3" cx="400" cy="230" r="50"/><rect class="cls-4" x="369.5" y="212.98047" width="60" height="35.03906"/><path class="cls-5" d="M399.5,219.97656a10.5,10.5,0,1,1-10.5,10.5,10.49771,10.49771,0,0,1,10.5-10.5"/><circle class="cls-3" cx="340" cy="360" r="50"/><rect class="cls-6" x="310" y="374.82422" width="60" height="2.69531"/><rect class="cls-4" x="310" y="372.12891" width="60" height="2.69531"/><rect class="cls-6" x="310" y="369.43359" width="60" height="2.69531"/><rect class="cls-4" x="310" y="366.73828" width="60" height="2.69531"/><rect class="cls-6" x="310" y="364.04297" width="60" height="2.69531"/><rect class="cls-4" x="310" y="361.34766" width="60" height="2.69531"/><rect class="cls-6" x="310" y="358.65234" width="60" height="2.69531"/><rect class="cls-4" x="310" y="355.95703" width="60" height="2.69531"/><rect class="cls-6" x="310" y="353.26172" width="60" height="2.69531"/><rect class="cls-4" x="310" y="350.56641" width="60" height="2.69531"/><rect class="cls-6" x="310" y="347.87109" width="60" height="2.69531"/><rect class="cls-4" x="310" y="345.17578" width="60" height="2.69531"/><rect class="cls-6" x="310" y="342.48047" width="60" height="2.69531"/><rect class="cls-7" x="310" y="342.48047" width="27.42188" height="18.86719"/><polygon class="cls-4" points="312.473 344.578 312.707 345.293 313.445 345.293 312.848 345.727 313.07 346.441 312.473 345.996 311.863 346.441 312.098 345.727 311.488 345.293 312.238 345.293 312.473 344.578"/><polygon class="cls-4" points="312.473 347.742 312.707 348.457 313.445 348.457 312.848 348.902 313.07 349.605 312.473 349.172 311.863 349.605 312.098 348.902 311.488 348.457 312.238 348.457 312.473 347.742"/><polygon class="cls-4" points="312.473 350.906 312.707 351.621 313.445 351.621 312.848 352.055 313.07 352.77 312.473 352.324 311.863 352.77 312.098 352.055 311.488 351.621 312.238 351.621 312.473 350.906"/><polygon class="cls-4" points="312.473 353.953 312.707 354.668 313.445 354.668 312.848 355.113 313.07 355.816 312.473 355.383 311.863 355.816 312.098 355.113 311.488 354.668 312.238 354.668 312.473 353.953"/><polygon class="cls-4" points="312.473 357.129 312.707 357.832 313.445 357.832 312.848 358.277 313.07 358.992 312.473 358.547 311.863 358.992 312.098 358.277 311.488 357.832 312.238 357.832 312.473 357.129"/><polygon class="cls-4" points="314.664 346.219 314.898 346.934 315.637 346.934 315.039 347.379 315.262 348.082 314.664 347.648 314.055 348.082 314.289 347.379 313.68 346.934 314.43 346.934 314.664 346.219"/><polygon class="cls-4" points="314.664 349.395 314.898 350.098 315.637 350.098 315.039 350.543 315.262 351.258 314.664 350.813 314.055 351.258 314.289 350.543 313.68 350.098 314.43 350.098 314.664 349.395"/><polygon class="cls-4" points="314.664 352.547 314.898 353.262 315.637 353.262 315.039 353.707 315.262 354.41 314.664 353.977 314.055 354.41 314.289 353.707 313.68 353.262 314.43 353.262 314.664 352.547"/><polygon class="cls-4" points="314.664 355.605 314.898 356.309 315.637 356.309 315.039 356.754 315.262 357.469 314.664 357.023 314.055 357.469 314.289 356.754 313.68 356.309 314.43 356.309 314.664 355.605"/><polygon class="cls-4" points="316.879 344.578 317.113 345.293 317.863 345.293 317.254 345.727 317.488 346.441 316.879 345.996 316.27 346.441 316.504 345.727 315.895 345.293 316.645 345.293 316.879 344.578"/><polygon class="cls-4" points="316.879 347.742 317.113 348.457 317.863 348.457 317.254 348.902 317.488 349.605 316.879 349.172 316.27 349.605 316.504 348.902 315.895 348.457 316.645 348.457 316.879 347.742"/><polygon class="cls-4" points="316.879 350.906 317.113 351.621 317.863 351.621 317.254 352.055 317.488 352.77 316.879 352.324 316.27 352.77 316.504 352.055 315.895 351.621 316.645 351.621 316.879 350.906"/><polygon class="cls-4" points="316.879 353.953 317.113 354.668 317.863 354.668 317.254 355.113 317.488 355.816 316.879 355.383 316.27 355.816 316.504 355.113 315.895 354.668 316.645 354.668 316.879 353.953"/><polygon class="cls-4" points="316.879 357.129 317.113 357.832 317.863 357.832 317.254 358.277 317.488 358.992 316.879 358.547 316.27 358.992 316.504 358.277 315.895 357.832 316.645 357.832 316.879 357.129"/><polygon class="cls-4" points="319.07 346.219 319.305 346.934 320.055 346.934 319.445 347.379 319.68 348.082 319.07 347.648 318.461 348.082 318.695 347.379 318.086 346.934 318.836 346.934 319.07 346.219"/><polygon class="cls-4" points="319.07 349.395 319.305 350.098 320.055 350.098 319.445 350.543 319.68 351.258 319.07 350.813 318.461 351.258 318.695 350.543 318.086 350.098 318.836 350.098 319.07 349.395"/><polygon class="cls-4" points="319.07 352.547 319.305 353.262 320.055 353.262 319.445 353.707 319.68 354.41 319.07 353.977 318.461 354.41 318.695 353.707 318.086 353.262 318.836 353.262 319.07 352.547"/><polygon class="cls-4" points="319.07 355.605 319.305 356.309 320.055 356.309 319.445 356.754 319.68 357.469 319.07 357.023 318.461 357.469 318.695 356.754 318.086 356.309 318.836 356.309 319.07 355.605"/><polygon class="cls-4" points="321.285 344.578 321.52 345.293 322.27 345.293 321.66 345.727 321.895 346.441 321.285 345.996 320.687 346.441 320.922 345.727 320.312 345.293 321.063 345.293 321.285 344.578"/><polygon class="cls-4" points="321.285 347.742 321.52 348.457 322.27 348.457 321.66 348.902 321.895 349.605 321.285 349.172 320.687 349.605 320.922 348.902 320.312 348.457 321.063 348.457 321.285 347.742"/><polygon class="cls-4" points="321.285 350.906 321.52 351.621 322.27 351.621 321.66 352.055 321.895 352.77 321.285 352.324 320.687 352.77 320.922 352.055 320.312 351.621 321.063 351.621 321.285 350.906"/><polygon class="cls-4" points="321.285 353.953 321.52 354.668 322.27 354.668 321.66 355.113 321.895 355.816 321.285 355.383 320.687 355.816 320.922 355.113 320.312 354.668 321.063 354.668 321.285 353.953"/><polygon class="cls-4" points="321.285 357.129 321.52 357.832 322.27 357.832 321.66 358.277 321.895 358.992 321.285 358.547 320.687 358.992 320.922 358.277 320.312 357.832 321.063 357.832 321.285 357.129"/><polygon class="cls-4" points="323.477 346.219 323.711 346.934 324.461 346.934 323.852 347.379 324.086 348.082 323.477 347.648 322.879 348.082 323.102 347.379 322.504 346.934 323.254 346.934 323.477 346.219"/><polygon class="cls-4" points="323.477 349.395 323.711 350.098 324.461 350.098 323.852 350.543 324.086 351.258 323.477 350.813 322.879 351.258 323.102 350.543 322.504 350.098 323.254 350.098 323.477 349.395"/><polygon class="cls-4" points="323.477 352.547 323.711 353.262 324.461 353.262 323.852 353.707 324.086 354.41 323.477 353.977 322.879 354.41 323.102 353.707 322.504 353.262 323.254 353.262 323.477 352.547"/><polygon class="cls-4" points="323.477 355.605 323.711 356.309 324.461 356.309 323.852 356.754 324.086 357.469 323.477 357.023 322.879 357.469 323.102 356.754 322.504 356.309 323.254 356.309 323.477 355.605"/><polygon class="cls-4" points="325.703 344.578 325.937 345.293 326.676 345.293 326.078 345.727 326.301 346.441 325.703 345.996 325.094 346.441 325.328 345.727 324.719 345.293 325.469 345.293 325.703 344.578"/><polygon class="cls-4" points="325.703 347.742 325.937 348.457 326.676 348.457 326.078 348.902 326.301 349.605 325.703 349.172 325.094 349.605 325.328 348.902 324.719 348.457 325.469 348.457 325.703 347.742"/><polygon class="cls-4" points="325.703 350.906 325.937 351.621 326.676 351.621 326.078 352.055 326.301 352.77 325.703 352.324 325.094 352.77 325.328 352.055 324.719 351.621 325.469 351.621 325.703 350.906"/><polygon class="cls-4" points="325.703 353.953 325.937 354.668 326.676 354.668 326.078 355.113 326.301 355.816 325.703 355.383 325.094 355.816 325.328 355.113 324.719 354.668 325.469 354.668 325.703 353.953"/><polygon class="cls-4" points="325.703 357.129 325.937 357.832 326.676 357.832 326.078 358.277 326.301 358.992 325.703 358.547 325.094 358.992 325.328 358.277 324.719 357.832 325.469 357.832 325.703 357.129"/><polygon class="cls-4" points="327.895 346.219 328.117 346.934 328.867 346.934 328.27 347.379 328.492 348.082 327.895 347.648 327.285 348.082 327.52 347.379 326.91 346.934 327.66 346.934 327.895 346.219"/><polygon class="cls-4" points="327.895 349.395 328.117 350.098 328.867 350.098 328.27 350.543 328.492 351.258 327.895 350.813 327.285 351.258 327.52 350.543 326.91 350.098 327.66 350.098 327.895 349.395"/><polygon class="cls-4" points="327.895 352.547 328.117 353.262 328.867 353.262 328.27 353.707 328.492 354.41 327.895 353.977 327.285 354.41 327.52 353.707 326.91 353.262 327.66 353.262 327.895 352.547"/><polygon class="cls-4" points="327.895 355.605 328.117 356.309 328.867 356.309 328.27 356.754 328.492 357.469 327.895 357.023 327.285 357.469 327.52 356.754 326.91 356.309 327.66 356.309 327.895 355.605"/><polygon class="cls-4" points="330.109 344.578 330.344 345.293 331.094 345.293 330.484 345.727 330.719 346.441 330.109 345.996 329.5 346.441 329.734 345.727 329.125 345.293 329.875 345.293 330.109 344.578"/><polygon class="cls-4" points="330.109 347.742 330.344 348.457 331.094 348.457 330.484 348.902 330.719 349.605 330.109 349.172 329.5 349.605 329.734 348.902 329.125 348.457 329.875 348.457 330.109 347.742"/><polygon class="cls-4" points="330.109 350.906 330.344 351.621 331.094 351.621 330.484 352.055 330.719 352.77 330.109 352.324 329.5 352.77 329.734 352.055 329.125 351.621 329.875 351.621 330.109 350.906"/><polygon class="cls-4" points="330.109 353.953 330.344 354.668 331.094 354.668 330.484 355.113 330.719 355.816 330.109 355.383 329.5 355.816 329.734 355.113 329.125 354.668 329.875 354.668 330.109 353.953"/><polygon class="cls-4" points="330.109 357.129 330.344 357.832 331.094 357.832 330.484 358.277 330.719 358.992 330.109 358.547 329.5 358.992 329.734 358.277 329.125 357.832 329.875 357.832 330.109 357.129"/><polygon class="cls-4" points="332.301 346.219 332.535 346.934 333.285 346.934 332.676 347.379 332.91 348.082 332.301 347.648 331.691 348.082 331.926 347.379 331.316 346.934 332.066 346.934 332.301 346.219"/><polygon class="cls-4" points="332.301 349.395 332.535 350.098 333.285 350.098 332.676 350.543 332.91 351.258 332.301 350.813 331.691 351.258 331.926 350.543 331.316 350.098 332.066 350.098 332.301 349.395"/><polygon class="cls-4" points="332.301 352.547 332.535 353.262 333.285 353.262 332.676 353.707 332.91 354.41 332.301 353.977 331.691 354.41 331.926 353.707 331.316 353.262 332.066 353.262 332.301 352.547"/><polygon class="cls-4" points="332.301 355.605 332.535 356.309 333.285 356.309 332.676 356.754 332.91 357.469 332.301 357.023 331.691 357.469 331.926 356.754 331.316 356.309 332.066 356.309 332.301 355.605"/><polygon class="cls-4" points="334.516 344.578 334.75 345.293 335.5 345.293 334.891 345.727 335.125 346.441 334.516 345.996 333.918 346.441 334.141 345.727 333.543 345.293 334.293 345.293 334.516 344.578"/><polygon class="cls-4" points="334.516 347.742 334.75 348.457 335.5 348.457 334.891 348.902 335.125 349.605 334.516 349.172 333.918 349.605 334.141 348.902 333.543 348.457 334.293 348.457 334.516 347.742"/><polygon class="cls-4" points="334.516 350.906 334.75 351.621 335.5 351.621 334.891 352.055 335.125 352.77 334.516 352.324 333.918 352.77 334.141 352.055 333.543 351.621 334.293 351.621 334.516 350.906"/><polygon class="cls-4" points="334.516 353.953 334.75 354.668 335.5 354.668 334.891 355.113 335.125 355.816 334.516 355.383 333.918 355.816 334.141 355.113 333.543 354.668 334.293 354.668 334.516 353.953"/><polygon class="cls-4" points="334.516 357.129 334.75 357.832 335.5 357.832 334.891 358.277 335.125 358.992 334.516 358.547 333.918 358.992 334.141 358.277 333.543 357.832 334.293 357.832 334.516 357.129"/><circle class="cls-3" cx="460" cy="360" r="50"/><g id="_グループ_" data-name="&lt;グループ&gt;"><rect id="_パス_" data-name="&lt;パス&gt;" class="cls-8" x="430" y="342.48047" width="60" height="35.03906"/><polygon id="_パス_2" data-name="&lt;パス&gt;" class="cls-9" points="460 346.418 459.566 347.754 458.148 347.754 459.297 348.586 458.852 349.934 460 349.102 461.148 349.934 460.703 348.586 461.852 347.754 460.434 347.754 460 346.418"/><polygon id="_パス_3" data-name="&lt;パス&gt;" class="cls-9" points="460.434 371.074 460 369.738 459.566 371.074 458.148 371.074 459.297 371.906 458.852 373.254 460 372.422 461.148 373.254 460.703 371.906 461.852 371.074 460.434 371.074"/><polygon id="_パス_4" data-name="&lt;パス&gt;" class="cls-9" points="448.328 360.691 449.477 361.523 449.043 360.188 450.18 359.355 448.773 359.355 448.328 358.008 447.895 359.355 446.488 359.355 447.625 360.188 447.191 361.523 448.328 360.691"/><polygon id="_パス_5" data-name="&lt;パス&gt;" class="cls-9" points="454.164 347.93 453.73 349.277 452.312 349.277 453.461 350.098 453.027 351.445 454.164 350.613 455.312 351.445 454.867 350.098 456.016 349.277 454.609 349.277 454.164 347.93"/><polygon id="_パス_6" data-name="&lt;パス&gt;" class="cls-9" points="449.898 352.148 449.465 353.496 448.047 353.496 449.195 354.328 448.75 355.664 449.898 354.844 451.035 355.664 450.602 354.328 451.75 353.496 450.332 353.496 449.898 352.148"/><polygon id="_パス_7" data-name="&lt;パス&gt;" class="cls-9" points="450.332 365.215 449.898 363.867 449.465 365.215 448.047 365.215 449.195 366.035 448.75 367.383 449.898 366.551 451.035 367.383 450.602 366.035 451.75 365.215 450.332 365.215"/><polygon id="_パス_8" data-name="&lt;パス&gt;" class="cls-9" points="454.609 369.434 454.164 368.086 453.73 369.434 452.312 369.434 453.461 370.266 453.027 371.602 454.164 370.781 455.312 371.602 454.867 370.266 456.016 369.434 454.609 369.434"/><polygon id="_パス_9" data-name="&lt;パス&gt;" class="cls-9" points="473.512 359.355 472.105 359.355 471.672 358.008 471.227 359.355 469.82 359.355 470.957 360.188 470.523 361.523 471.672 360.691 472.809 361.523 472.375 360.188 473.512 359.355"/><polygon id="_パス_10" data-name="&lt;パス&gt;" class="cls-9" points="465.836 347.93 465.391 349.277 463.984 349.277 465.133 350.098 464.687 351.445 465.836 350.613 466.973 351.445 466.539 350.098 467.688 349.277 466.27 349.277 465.836 347.93"/><polygon id="_パス_11" data-name="&lt;パス&gt;" class="cls-9" points="469.398 354.328 468.965 355.664 470.102 354.844 471.25 355.664 470.816 354.328 471.953 353.496 470.535 353.496 470.102 352.148 469.668 353.496 468.25 353.496 469.398 354.328"/><polygon id="_パス_12" data-name="&lt;パス&gt;" class="cls-9" points="470.535 365.215 470.102 363.867 469.668 365.215 468.25 365.215 469.398 366.035 468.965 367.383 470.102 366.551 471.25 367.383 470.816 366.035 471.953 365.215 470.535 365.215"/><polygon id="_パス_13" data-name="&lt;パス&gt;" class="cls-9" points="466.27 369.434 465.836 368.086 465.391 369.434 463.984 369.434 465.133 370.266 464.687 371.602 465.836 370.781 466.973 371.602 466.539 370.266 467.688 369.434 466.27 369.434"/></g><rect class="cls-10" x="250" y="150" width="300" height="300"/><rect class="cls-11" x="150" y="263" width="100" height="24"/><rect class="cls-11" x="150" y="313" width="100" height="24"/><rect class="cls-12" x="-150" y="150" width="300" height="300"/><ellipse class="cls-13" cx="80" rx="80" ry="40"/><ellipse class="cls-13" cx="160" cy="40" rx="80" ry="40"/><ellipse class="cls-13" cx="240" rx="80" ry="40"/><ellipse class="cls-13" cx="400" rx="80" ry="40"/><ellipse class="cls-13" cx="320" cy="40" rx="80" ry="40"/><ellipse class="cls-13" cx="560" rx="80" ry="40"/><ellipse class="cls-13" cx="480" cy="40" rx="80" ry="40"/><ellipse class="cls-13" cx="640" cy="40" rx="80" ry="40"/><ellipse class="cls-13" cx="560" cy="80" rx="80" ry="40"/><ellipse class="cls-13" cx="400" cy="40" rx="80" ry="40"/><ellipse class="cls-13" cx="520" cy="600" rx="80" ry="40"/><ellipse class="cls-13" cx="440" cy="560" rx="80" ry="40"/><ellipse class="cls-13" cx="360" cy="600" rx="80" ry="40"/><ellipse class="cls-13" cx="200" cy="600" rx="80" ry="40"/><ellipse class="cls-13" cx="280" cy="560" rx="80" ry="40"/><ellipse class="cls-13" cx="40" cy="600" rx="80" ry="40"/><ellipse class="cls-13" cx="120" cy="560" rx="80" ry="40"/><ellipse class="cls-13" cx="-40" cy="560" rx="80" ry="40"/><ellipse class="cls-13" cx="40" cy="520" rx="80" ry="40"/><ellipse class="cls-13" cx="200" cy="560" rx="80" ry="40"/></g></svg>