<svg width="1358" height="288" viewBox="0 0 1358 288" fill="none" xmlns="http://www.w3.org/2000/svg">
<path d="M408.246 221V85.8945H456.234V68.8086H341.273V85.8945H389.262V221H408.246ZM488.93 125.34C506.227 125.34 517.723 138.418 518.145 156.77H458.555C459.715 138.523 471.738 125.34 488.93 125.34ZM517.723 189.57C514.664 199.906 504.434 206.973 490.512 206.973C470.789 206.973 458.449 193.156 458.449 172.168V171.113H537.129V164.152C537.129 130.93 518.883 109.414 489.246 109.414C458.977 109.414 439.57 132.512 439.57 166.578C439.57 201.066 458.66 222.898 490.09 222.898C514.031 222.898 532.594 208.766 535.758 189.57H517.723ZM555.691 221H574.043V156.453C574.043 137.891 585.328 125.656 602.625 125.656C619.5 125.656 627.832 135.359 627.832 153.078V221H646.184V149.809C646.184 124.918 632.262 109.414 608.215 109.414C591.234 109.414 579.527 117.008 573.41 128.82H572.988V111.312H555.691V221ZM711.152 222.898C726.973 222.898 739.523 215.094 746.59 202.438H746.906V221H764.414V68.8086H746.062V129.137H745.641C739.102 117.113 726.445 109.414 710.73 109.414C683.098 109.414 664.219 131.773 664.219 166.156C664.219 200.539 683.203 222.898 711.152 222.898ZM714.633 125.551C733.512 125.551 746.168 141.688 746.168 166.156C746.168 190.73 733.512 206.762 714.633 206.762C695.227 206.762 682.992 191.047 682.992 166.156C682.992 141.371 695.227 125.551 714.633 125.551ZM833.18 125.34C850.477 125.34 861.973 138.418 862.395 156.77H802.805C803.965 138.523 815.988 125.34 833.18 125.34ZM861.973 189.57C858.914 199.906 848.684 206.973 834.762 206.973C815.039 206.973 802.699 193.156 802.699 172.168V171.113H881.379V164.152C881.379 130.93 863.133 109.414 833.496 109.414C803.227 109.414 783.82 132.512 783.82 166.578C783.82 201.066 802.91 222.898 834.34 222.898C858.281 222.898 876.844 208.766 880.008 189.57H861.973ZM899.941 221H918.293V152.656C918.293 137.152 927.574 126.922 941.812 126.922C946.242 126.922 950.145 127.449 951.621 127.977V110.152C950.145 109.941 947.402 109.414 944.238 109.414C931.371 109.414 921.246 117.113 917.66 129.242H917.238V111.312H899.941V221ZM966.598 221H984.949V152.234C984.949 137.047 995.496 125.656 1010.05 125.656C1023.66 125.656 1032.52 134.305 1032.52 147.488V221H1050.87V151.285C1050.87 136.414 1061.1 125.656 1075.65 125.656C1090.1 125.656 1098.43 134.516 1098.43 149.492V221H1116.79V145.273C1116.79 123.547 1102.76 109.414 1081.03 109.414C1065.63 109.414 1052.77 117.219 1046.65 130.297H1046.23C1041.48 117.008 1030.41 109.414 1015.43 109.414C1000.66 109.414 989.484 117.219 984.316 128.82H983.895V111.312H966.598V221ZM1141.15 221H1159.5V111.312H1141.15V221ZM1150.32 92.8555C1156.65 92.8555 1161.82 87.6875 1161.82 81.4648C1161.82 75.1367 1156.65 70.0742 1150.32 70.0742C1144.1 70.0742 1138.93 75.1367 1138.93 81.4648C1138.93 87.6875 1144.1 92.8555 1150.32 92.8555ZM1184.29 221H1202.64V156.453C1202.64 137.891 1213.92 125.656 1231.22 125.656C1248.09 125.656 1256.43 135.359 1256.43 153.078V221H1274.78V149.809C1274.78 124.918 1260.86 109.414 1236.81 109.414C1219.83 109.414 1208.12 117.008 1202 128.82H1201.58V111.312H1184.29V221ZM1304.1 84.8398V111.312H1287.75V126.395H1304.1V192.523C1304.1 213.617 1311.9 221.844 1332.05 221.844C1336.37 221.844 1341.43 221.527 1343.65 221V205.602C1342.38 205.812 1338.16 206.129 1336.05 206.129C1326.67 206.129 1322.45 201.594 1322.45 191.574V126.395H1343.75V111.312H1322.45V84.8398H1304.1Z" fill="black"/>
<mask id="mask0" mask-type="alpha" maskUnits="userSpaceOnUse" x="0" y="0" width="288" height="288">
<path fill-rule="evenodd" clip-rule="evenodd" d="M197.113 112.448C180.326 105.821 162.248 102.36 143.989 102.36C105.614 102.36 69.5175 117.446 42.3507 144.838C15.3017 172.11 0.273845 208.337 0.0320287 246.844L0 252.016L4.48722 254.571C26.1138 266.893 50.5709 273.375 75.3539 273.375C76.0353 273.375 76.7223 273.37 77.4054 273.36C99.0087 273.048 120.381 267.847 139.757 258.246C133.648 254.824 127.793 250.97 122.227 246.722C88.4545 260.044 50.1786 258.402 17.7863 241.716C20.9372 174.141 76.4981 120.012 143.989 120.012C162.76 120.012 181.302 124.17 198.047 132.071C198.262 125.529 197.953 118.972 197.113 112.448" fill="#63B036"/>
<path fill-rule="evenodd" clip-rule="evenodd" d="M287.946 245.644C287.431 197.769 264.15 154.089 225.341 127.482C225.369 134.487 224.902 141.489 223.941 148.449C251.518 170.995 268.33 204.196 270.169 240.57C210.684 271.263 136.498 249.768 102.705 191.116C93.5778 175.274 87.9816 157.56 86.3369 139.461C80.5957 142.596 75.1124 146.203 69.9358 150.247C72.6654 167.665 78.5972 184.58 87.4491 199.943C106.672 233.306 137.576 257.226 174.467 267.293C186.983 270.71 199.709 272.4 212.364 272.4C237.022 272.4 261.417 265.984 283.49 253.413L288 250.843L287.946 245.644Z" fill="#63B036"/>
<path fill-rule="evenodd" clip-rule="evenodd" d="M149.077 2.61334L144.628 0L140.178 2.60933C118.191 15.4939 99.9239 33.967 87.351 56.0299C76.4941 75.084 70.0723 96.428 68.5662 118.215C74.5852 114.632 80.8556 111.482 87.339 108.79C92.924 72.875 113.782 40.4157 144.62 20.5801C201.259 57.0465 219.885 132.655 185.864 191.702C176.651 207.693 164.053 221.519 149.129 232.135C154.703 235.538 160.557 238.494 166.639 240.965C180.436 229.764 192.182 216.042 201.12 200.528C240.841 131.588 217.494 42.8044 149.077 2.61334" fill="#63B036"/>
<path fill-rule="evenodd" clip-rule="evenodd" d="M144.54 153.254C136.425 153.254 129.825 159.868 129.825 167.999C129.825 176.129 136.425 182.744 144.54 182.744C152.654 182.744 159.256 176.129 159.256 167.999C159.256 159.868 152.654 153.254 144.54 153.254M144.54 200.396C126.712 200.396 112.209 185.864 112.209 167.999C112.209 150.135 126.712 135.601 144.54 135.601C162.368 135.601 176.872 150.135 176.872 167.999C176.872 185.864 162.368 200.396 144.54 200.396" fill="#63B036"/>
</mask>
<g mask="url(#mask0)">
<path fill-rule="evenodd" clip-rule="evenodd" d="M-112 -112H400V400H-112V-112Z" fill="url(#paint0_linear)"/>
</g>
<defs>
<linearGradient id="paint0_linear" x1="-112" y1="-112" x2="-112" y2="400" gradientUnits="userSpaceOnUse">
<stop stop-color="#98D438"/>
<stop offset="1" stop-color="#238535"/>
</linearGradient>
</defs>
</svg>
