<svg width="121" height="24" viewBox="0 0 121 24" fill="none" xmlns="http://www.w3.org/2000/svg">
<path d="M32.2917 5.14472C32.687 3.28106 33.76 2.71631 35.2284 2.71631H41.61C45.1115 2.71631 47.5963 4.46703 46.6928 8.53321C45.9586 11.8652 43.1348 14.3501 39.1251 14.3501H34.4942L33.4776 19.2069C33.1953 20.4494 32.2352 21.2965 30.9363 21.2965C29.6374 21.2965 29.0161 20.4494 29.2985 19.2069L32.2917 5.14472ZM35.2284 11.0746H39.1251C40.8194 11.0746 42.2877 10.058 42.6266 8.47674C43.0219 6.66954 41.8924 5.8789 39.8028 5.8789H36.3579L35.2284 11.0746Z" fill="#E9536B"/>
<path d="M54.6553 7.34735C59.1168 7.34735 60.8676 10.397 60.0204 14.2938C59.2298 18.0211 56.7449 21.2966 51.6622 21.2966C46.5794 21.2966 45.5064 18.0211 46.297 14.3502C47.1442 10.397 50.1938 7.34735 54.6553 7.34735ZM52.2834 18.5858C54.4859 18.5858 55.8413 16.6092 56.3496 14.3502C56.8578 11.9218 56.2366 10.1146 54.0906 10.1146C51.9445 10.1146 50.5327 11.9218 50.0244 14.3502C49.5726 16.6092 50.0809 18.5858 52.2834 18.5858Z" fill="#E9536B"/>
<path d="M64.3696 4.18481C64.652 2.94236 65.4991 2.32114 66.6286 2.32114C67.7581 2.32114 68.3228 2.94236 68.0969 4.18481L64.8779 19.433C64.5955 20.6755 63.7484 21.2967 62.6189 21.2967C61.4894 21.2967 60.9246 20.6755 61.1505 19.433L64.3696 4.18481Z" fill="#E9536B"/>
<path d="M69.9037 9.21102C70.1296 8.19447 70.6944 7.34735 72.1627 7.34735C73.6311 7.34735 73.8569 8.19447 73.631 9.21102L71.4285 19.433C71.2026 20.4495 70.6379 21.2966 69.1695 21.2966C67.7012 21.2966 67.4753 20.4495 67.7012 19.433L69.9037 9.21102ZM73.2357 2.26462C74.3087 2.26462 74.9864 3.11174 74.7605 4.18476C74.5346 5.25778 73.4616 6.10491 72.4451 6.10491C71.3721 6.10491 70.6944 5.25778 70.9203 4.18476C71.1462 3.11174 72.1627 2.26462 73.2357 2.26462Z" fill="#E9536B"/>
<path d="M77.8103 5.14473C78.2056 3.28106 79.2786 2.71631 80.7469 2.71631H87.1286C90.63 2.71631 93.1149 4.46703 92.2113 8.53321C91.4772 11.8652 88.6534 14.3501 84.6437 14.3501H80.0128L78.9398 19.3199C78.6574 20.5623 77.6973 21.4095 76.3984 21.4095C75.0995 21.4095 74.4782 20.5623 74.7606 19.3199L77.8103 5.14473ZM80.6905 11.0746H84.5872C86.2815 11.0746 87.7498 10.058 88.0887 8.47674C88.484 6.66954 87.3545 5.8789 85.2649 5.8789H81.82L80.6905 11.0746Z" fill="#E9536B"/>
<path d="M100.174 7.34735C104.636 7.34735 106.387 10.397 105.539 14.2938C104.749 18.0211 102.264 21.2966 97.1811 21.2966C92.0984 21.2966 91.0254 18.0211 91.816 14.2938C92.6632 10.397 95.6563 7.34735 100.174 7.34735ZM97.7459 18.5858C99.9484 18.5858 101.304 16.6092 101.812 14.3502C102.32 11.9218 101.699 10.1146 99.5531 10.1146C97.407 10.1146 95.9952 11.9218 95.4869 14.3502C95.0351 16.6092 95.5434 18.5858 97.7459 18.5858Z" fill="#E9536B"/>
<path d="M109.831 4.18481C110.113 2.94236 110.961 2.32114 112.09 2.32114C113.22 2.32114 113.784 2.94236 113.558 4.18481L110.339 19.433C110.057 20.6755 109.21 21.2967 108.08 21.2967C106.951 21.2967 106.386 20.6755 106.612 19.433L109.831 4.18481Z" fill="#E9536B"/>
<path d="M115.422 9.21102C115.648 8.19447 116.213 7.34735 117.681 7.34735C119.149 7.34735 119.375 8.19447 119.149 9.21102L116.947 19.433C116.721 20.4495 116.156 21.2966 114.688 21.2966C113.22 21.2966 112.994 20.4495 113.22 19.433L115.422 9.21102ZM118.754 2.26462C119.827 2.26462 120.505 3.11174 120.279 4.18476C120.053 5.25778 118.98 6.10491 117.964 6.10491C116.947 6.10491 116.213 5.25778 116.439 4.18476C116.608 3.11174 117.681 2.26462 118.754 2.26462Z" fill="#E9536B"/>
<path d="M18.6813 21.6915C13.655 25.4753 6.48272 24.5153 2.69891 19.489C-1.0849 14.4628 -1.0849 6.04802 3.94136 2.20773C8.96762 -1.57608 18.3989 -0.333635 22.1827 4.69262C25.9665 9.71888 23.7075 17.9077 18.6813 21.6915Z" fill="#E9536B"/>
</svg>
