<?xml version="1.0" encoding="utf-8"?>
<!-- Generator: Adobe Illustrator 15.0.2, SVG Export Plug-In . SVG Version: 6.00 Build 0)  -->
<!DOCTYPE svg PUBLIC "-//W3C//DTD SVG 1.1//EN" "http://www.w3.org/Graphics/SVG/1.1/DTD/svg11.dtd">
<svg version="1.1" id="レイヤー_1" xmlns="http://www.w3.org/2000/svg" xmlns:xlink="http://www.w3.org/1999/xlink" x="0px"
	 y="0px" width="644.048px" height="119.551px" viewBox="-0.001 0 644.048 119.551"
	 enable-background="new -0.001 0 644.048 119.551" xml:space="preserve">
<g id="レイヤー_1_1_">
</g>
<g id="レイヤー_2">
	<g>
		<g>
			<g>
				<path fill="#395DAA" d="M73.105,70.005c-36.329,0-73.106-10.453-73.106-30.43c0-19.975,36.777-30.426,73.106-30.426
					c36.329,0,73.105,10.451,73.105,30.426C146.21,59.552,109.434,70.005,73.105,70.005z M73.105,21.703
					c-39.181,0-60.555,11.809-60.555,17.873c0,6.068,21.374,17.879,60.555,17.879c39.18,0,60.554-11.811,60.554-17.879
					C133.66,33.509,112.286,21.703,73.105,21.703z"/>
				<path fill="#395DAA" d="M73.105,87.597c-27.917,0-56.179-7.891-56.179-22.977c0-15.082,28.262-22.975,56.179-22.975
					c27.918,0,56.18,7.893,56.18,22.975C129.286,79.707,101.023,87.597,73.105,87.597z M73.105,50.015
					c-29.186,0-47.812,8.65-47.812,14.605c0,5.957,18.626,14.609,47.812,14.609c29.187,0,47.813-8.652,47.813-14.609
					C120.918,58.666,102.292,50.015,73.105,50.015z"/>
				<path fill="#395DAA" d="M73.105,103.498c-18.647,0-38.466-5.475-38.466-15.619s19.819-15.621,38.466-15.621
					s38.466,5.477,38.466,15.621C111.571,98.025,91.753,103.498,73.105,103.498z M73.105,77.644c-20.192,0-33.08,6.063-33.08,10.234
					c0,4.17,12.888,10.232,33.08,10.232c20.193,0,33.08-6.063,33.08-10.232C106.185,83.707,93.3,77.644,73.105,77.644z"/>
			</g>
			<path fill="none" stroke="#395DAA" stroke-width="3.5448" stroke-miterlimit="10" d="M26.741,56.201"/>
			<path fill="none" stroke="#395DAA" stroke-width="2.8358" stroke-miterlimit="10" d="M116.389,57.054"/>
			<polygon fill="#395DAA" points="93.804,64.388 93.804,64.388 120.192,19.699 103.451,19.476 145.019,0 			"/>
			<polygon fill="#395DAA" points="76.153,101.291 64.721,119.55 87.479,100.076 			"/>
		</g>
		<path d="M183.325,63.291v32.979h-9.385V63.291h-12.058l21.443-24.477v15.41h14.821v9.063h-14.821V63.291z"/>
		<path d="M209.809,88.458L191.54,54.226h10.885l12.43,24.174l11.593-24.174h10.596l-32.366,64.928h-10.72L209.809,88.458z"/>
		<path d="M243.427,54.226h9.384v3.756c1.727-1.871,3.254-3.15,4.588-3.842c1.363-0.719,2.976-1.08,4.839-1.08
			c2.476,0,5.063,0.836,7.758,2.506l-4.295,8.893c-1.781-1.324-3.521-1.984-5.213-1.984c-5.118,0-7.677,4-7.677,12v21.801h-9.385
			L243.427,54.226L243.427,54.226L243.427,54.226z"/>
		<path d="M311.788,77.539h-29.115c0.252,3.453,1.338,6.201,3.254,8.244c1.918,2.016,4.379,3.021,7.385,3.021
			c2.334,0,4.269-0.574,5.797-1.727c1.502-1.152,3.212-3.279,5.129-6.389l7.925,4.574c-1.224,2.158-2.517,4.01-3.878,5.549
			c-1.361,1.537-2.822,2.805-4.379,3.801c-1.559,0.99-3.241,1.717-5.047,2.178c-1.811,0.461-3.768,0.691-5.883,0.691
			c-6.062,0-10.926-2.018-14.599-6.043c-3.668-4.061-5.504-9.439-5.504-16.146c0-6.646,1.779-12.029,5.341-16.146
			c3.586-4.059,8.34-6.088,14.264-6.088c5.979,0,10.703,1.973,14.18,5.914c3.449,3.916,5.171,9.342,5.171,16.277L311.788,77.539z
			 M302.152,69.595c-1.308-5.182-4.462-7.771-9.468-7.771c-1.142,0-2.211,0.18-3.213,0.541c-1,0.359-1.912,0.877-2.731,1.553
			c-0.821,0.678-1.521,1.49-2.104,2.439c-0.584,0.947-1.031,2.027-1.338,3.238H302.152z"/>
		<path d="M331.434,23.361v72.912h-9.386V23.361H331.434z"/>
		<path d="M352.706,23.361v72.912h-9.385V23.361H352.706z"/>
		<path d="M386.741,61.392l-7.758,4.273c-1.225-2.561-2.738-3.842-4.547-3.842c-0.861,0-1.6,0.295-2.209,0.885
			c-0.613,0.59-0.918,1.342-0.918,2.262c0,1.611,1.805,3.207,5.42,4.785c4.98,2.217,8.328,4.258,10.055,6.125
			c1.727,1.869,2.588,4.383,2.588,7.545c0,4.053-1.447,7.445-4.34,10.178c-2.809,2.584-6.197,3.879-10.178,3.879
			c-6.813,0-11.637-3.438-14.475-10.316l8.01-3.844c1.111,2.018,1.959,3.297,2.543,3.844c1.141,1.094,2.504,1.641,4.088,1.641
			c3.17,0,4.756-1.494,4.756-4.486c0-1.73-1.225-3.338-3.67-4.836c-0.947-0.488-1.893-0.967-2.838-1.428
			c-0.945-0.459-1.906-0.934-2.877-1.424c-2.727-1.381-4.645-2.766-5.756-4.145c-1.418-1.756-2.127-4.014-2.127-6.779
			c0-3.652,1.209-6.674,3.627-9.063c2.477-2.389,5.479-3.584,9.012-3.584C380.346,53.06,384.211,55.837,386.741,61.392z"/>
		<path d="M410.598,88.458l-18.268-34.232h10.883L415.647,78.4l11.594-24.174h10.598l-32.367,64.928h-10.723L410.598,88.458z"/>
		<path d="M467.825,61.392l-7.762,4.273c-1.221-2.561-2.738-3.842-4.543-3.842c-0.859,0-1.6,0.295-2.209,0.885
			c-0.615,0.59-0.918,1.342-0.918,2.262c0,1.611,1.807,3.207,5.42,4.785c4.98,2.217,8.33,4.258,10.055,6.125
			c1.725,1.869,2.586,4.383,2.586,7.545c0,4.053-1.447,7.445-4.338,10.178c-2.809,2.584-6.197,3.879-10.176,3.879
			c-6.814,0-11.637-3.438-14.479-10.316l8.01-3.844c1.111,2.018,1.961,3.297,2.547,3.844c1.139,1.094,2.498,1.641,4.084,1.641
			c3.17,0,4.758-1.494,4.758-4.486c0-1.73-1.227-3.338-3.674-4.836c-0.943-0.488-1.889-0.967-2.834-1.428
			c-0.945-0.459-1.906-0.934-2.877-1.424c-2.729-1.381-4.645-2.766-5.756-4.145c-1.416-1.756-2.129-4.014-2.129-6.779
			c0-3.652,1.211-6.674,3.627-9.063c2.479-2.389,5.479-3.584,9.012-3.584C461.43,53.06,465.295,55.837,467.825,61.392z"/>
		<path d="M488.555,63.291v32.979h-9.383V63.291h-4.006v-9.064h4.006v-15.41h9.383v15.41h7.301v9.064H488.555z"/>
		<path d="M539.979,77.539h-29.111c0.25,3.453,1.332,6.201,3.256,8.244c1.918,2.016,4.381,3.021,7.379,3.021
			c2.34,0,4.27-0.574,5.803-1.727c1.498-1.152,3.211-3.279,5.129-6.389l7.924,4.574c-1.225,2.158-2.516,4.01-3.877,5.549
			c-1.365,1.537-2.824,2.805-4.381,3.801c-1.557,0.99-3.238,1.717-5.047,2.178c-1.807,0.461-3.766,0.691-5.879,0.691
			c-6.064,0-10.93-2.018-14.602-6.043c-3.674-4.061-5.506-9.439-5.506-16.146c0-6.646,1.779-12.029,5.336-16.146
			c3.59-4.059,8.348-6.088,14.268-6.088c5.977,0,10.707,1.973,14.186,5.914c3.445,3.916,5.17,9.342,5.17,16.277L539.979,77.539z
			 M530.346,69.595c-1.305-5.182-4.463-7.771-9.467-7.771c-1.143,0-2.211,0.18-3.211,0.541c-1,0.359-1.91,0.877-2.73,1.553
			c-0.822,0.678-1.525,1.49-2.107,2.439c-0.584,0.947-1.031,2.027-1.334,3.238H530.346z"/>
		<path d="M550.243,54.226h9.389v3.887c1.803-1.959,3.348-3.281,4.627-3.973c1.361-0.719,3.066-1.08,5.131-1.08
			c4.584,0,8.217,2.072,10.887,6.217c2.945-4.145,6.938-6.217,11.971-6.217c9.146,0,13.723,5.744,13.723,17.229v25.984h-9.428
			V72.919c0-4.031-0.475-6.877-1.418-8.549c-0.977-1.697-2.572-2.547-4.799-2.547c-2.584,0-4.469,1.008-5.65,3.021
			c-1.182,2.016-1.771,5.252-1.771,9.711v21.717h-9.428V73.048c0-7.482-2.086-11.225-6.254-11.225c-2.643,0-4.568,1.02-5.777,3.063
			s-1.813,5.27-1.813,9.67v21.715h-9.385V54.224h-0.004V54.226z"/>
		<path d="M641.42,61.392l-7.762,4.273c-1.225-2.561-2.734-3.842-4.549-3.842c-0.855,0-1.596,0.295-2.209,0.885
			c-0.605,0.59-0.916,1.342-0.916,2.262c0,1.611,1.809,3.207,5.42,4.785c4.98,2.217,8.33,4.258,10.057,6.125
			c1.727,1.869,2.586,4.383,2.586,7.545c0,4.053-1.445,7.445-4.338,10.178c-2.811,2.584-6.201,3.879-10.18,3.879
			c-6.813,0-11.637-3.438-14.475-10.316l8.01-3.844c1.111,2.018,1.961,3.297,2.543,3.844c1.143,1.094,2.504,1.641,4.088,1.641
			c3.17,0,4.76-1.494,4.76-4.486c0-1.73-1.23-3.338-3.67-4.836c-0.949-0.488-1.896-0.967-2.842-1.428
			c-0.941-0.459-1.902-0.934-2.877-1.424c-2.725-1.381-4.645-2.766-5.756-4.145c-1.418-1.756-2.127-4.014-2.127-6.779
			c0-3.652,1.211-6.674,3.629-9.063c2.477-2.389,5.48-3.584,9.014-3.584C635.022,53.06,638.887,55.837,641.42,61.392z"/>
	</g>
</g>
</svg>
